G04 #@! TF.FileFunction,Legend,Top*
%FSLAX46Y46*%
G04 Gerber Fmt 4.6, Leading zero omitted, Abs format (unit mm)*
G04 Created by KiCad (PCBNEW 4.0.6) date 09/27/17 00:30:41*
%MOMM*%
%LPD*%
G01*
G04 APERTURE LIST*
%ADD10C,0.100000*%
%ADD11C,0.150000*%
%ADD12C,0.120000*%
G04 APERTURE END LIST*
D10*
D11*
X116200000Y-82390000D02*
G75*
G03X116200000Y-82390000I-2000000J0D01*
G01*
X110200000Y-79890000D02*
X109700000Y-79890000D01*
X110200000Y-74890000D02*
X109700000Y-74890000D01*
X116200000Y-77390000D02*
G75*
G03X116200000Y-77390000I-2000000J0D01*
G01*
X116200000Y-72390000D02*
G75*
G03X116200000Y-72390000I-2000000J0D01*
G01*
X111700000Y-69890000D02*
X111700000Y-84890000D01*
X116600000Y-69890000D02*
X116600000Y-84890000D01*
X110200000Y-69890000D02*
X110200000Y-84890000D01*
X109700000Y-69890000D02*
X109700000Y-84890000D01*
X109700000Y-84890000D02*
X119500000Y-84890000D01*
X119500000Y-84890000D02*
X119500000Y-69890000D01*
X119500000Y-69890000D02*
X109700000Y-69890000D01*
D12*
X161230000Y-77740000D02*
G75*
G02X161230000Y-79740000I0J-1000000D01*
G01*
X161230000Y-79740000D02*
X161230000Y-81390000D01*
X161230000Y-81390000D02*
X171510000Y-81390000D01*
X171510000Y-81390000D02*
X171510000Y-76090000D01*
X171510000Y-76090000D02*
X161230000Y-76090000D01*
X161230000Y-76090000D02*
X161230000Y-77740000D01*
X161230000Y-57420000D02*
G75*
G02X161230000Y-59420000I0J-1000000D01*
G01*
X161230000Y-59420000D02*
X161230000Y-61070000D01*
X161230000Y-61070000D02*
X171510000Y-61070000D01*
X171510000Y-61070000D02*
X171510000Y-55770000D01*
X171510000Y-55770000D02*
X161230000Y-55770000D01*
X161230000Y-55770000D02*
X161230000Y-57420000D01*
X188550000Y-93570000D02*
X188550000Y-91850000D01*
X188550000Y-91850000D02*
X184830000Y-91850000D01*
X184830000Y-91850000D02*
X184830000Y-93570000D01*
X184830000Y-93570000D02*
X188550000Y-93570000D01*
X189620000Y-92710000D02*
X188550000Y-92710000D01*
X183760000Y-92710000D02*
X184830000Y-92710000D01*
X188550000Y-45310000D02*
X188550000Y-43590000D01*
X188550000Y-43590000D02*
X184830000Y-43590000D01*
X184830000Y-43590000D02*
X184830000Y-45310000D01*
X184830000Y-45310000D02*
X188550000Y-45310000D01*
X189620000Y-44450000D02*
X188550000Y-44450000D01*
X183760000Y-44450000D02*
X184830000Y-44450000D01*
X177390000Y-104820000D02*
X175670000Y-104820000D01*
X175670000Y-104820000D02*
X175670000Y-108540000D01*
X175670000Y-108540000D02*
X177390000Y-108540000D01*
X177390000Y-108540000D02*
X177390000Y-104820000D01*
X176530000Y-103750000D02*
X176530000Y-104820000D01*
X176530000Y-109610000D02*
X176530000Y-108540000D01*
X174580000Y-45310000D02*
X174580000Y-43590000D01*
X174580000Y-43590000D02*
X170860000Y-43590000D01*
X170860000Y-43590000D02*
X170860000Y-45310000D01*
X170860000Y-45310000D02*
X174580000Y-45310000D01*
X175650000Y-44450000D02*
X174580000Y-44450000D01*
X169790000Y-44450000D02*
X170860000Y-44450000D01*
X141830000Y-101010000D02*
X140110000Y-101010000D01*
X140110000Y-101010000D02*
X140110000Y-104730000D01*
X140110000Y-104730000D02*
X141830000Y-104730000D01*
X141830000Y-104730000D02*
X141830000Y-101010000D01*
X140970000Y-99940000D02*
X140970000Y-101010000D01*
X140970000Y-105800000D02*
X140970000Y-104730000D01*
X141830000Y-74975000D02*
X140110000Y-74975000D01*
X140110000Y-74975000D02*
X140110000Y-78695000D01*
X140110000Y-78695000D02*
X141830000Y-78695000D01*
X141830000Y-78695000D02*
X141830000Y-74975000D01*
X140970000Y-73905000D02*
X140970000Y-74975000D01*
X140970000Y-79765000D02*
X140970000Y-78695000D01*
X141830000Y-46400000D02*
X140110000Y-46400000D01*
X140110000Y-46400000D02*
X140110000Y-50120000D01*
X140110000Y-50120000D02*
X141830000Y-50120000D01*
X141830000Y-50120000D02*
X141830000Y-46400000D01*
X140970000Y-45330000D02*
X140970000Y-46400000D01*
X140970000Y-51190000D02*
X140970000Y-50120000D01*
D11*
X116200000Y-54450000D02*
G75*
G03X116200000Y-54450000I-2000000J0D01*
G01*
X110200000Y-51950000D02*
X109700000Y-51950000D01*
X110200000Y-46950000D02*
X109700000Y-46950000D01*
X116200000Y-49450000D02*
G75*
G03X116200000Y-49450000I-2000000J0D01*
G01*
X116200000Y-44450000D02*
G75*
G03X116200000Y-44450000I-2000000J0D01*
G01*
X111700000Y-41950000D02*
X111700000Y-56950000D01*
X116600000Y-41950000D02*
X116600000Y-56950000D01*
X110200000Y-41950000D02*
X110200000Y-56950000D01*
X109700000Y-41950000D02*
X109700000Y-56950000D01*
X109700000Y-56950000D02*
X119500000Y-56950000D01*
X119500000Y-56950000D02*
X119500000Y-41950000D01*
X119500000Y-41950000D02*
X109700000Y-41950000D01*
X111470000Y-104100000D02*
X110970000Y-104100000D01*
X117470000Y-106600000D02*
G75*
G03X117470000Y-106600000I-2000000J0D01*
G01*
X117470000Y-101600000D02*
G75*
G03X117470000Y-101600000I-2000000J0D01*
G01*
X112970000Y-99100000D02*
X112970000Y-109100000D01*
X117870000Y-99100000D02*
X117870000Y-109100000D01*
X111470000Y-99100000D02*
X111470000Y-109100000D01*
X110970000Y-99100000D02*
X110970000Y-109100000D01*
X110970000Y-109100000D02*
X120770000Y-109100000D01*
X120770000Y-109100000D02*
X120770000Y-99100000D01*
X120770000Y-99100000D02*
X110970000Y-99100000D01*
D12*
X186689538Y-69030000D02*
G75*
G03X188234830Y-63480000I462J2990000D01*
G01*
X186690462Y-69030000D02*
G75*
G02X185145170Y-63480000I-462J2990000D01*
G01*
X189190000Y-66040000D02*
G75*
G03X189190000Y-66040000I-2500000J0D01*
G01*
X188235000Y-63480000D02*
X185145000Y-63480000D01*
X186689538Y-60140000D02*
G75*
G03X188234830Y-54590000I462J2990000D01*
G01*
X186690462Y-60140000D02*
G75*
G02X185145170Y-54590000I-462J2990000D01*
G01*
X189190000Y-57150000D02*
G75*
G03X189190000Y-57150000I-2500000J0D01*
G01*
X188235000Y-54590000D02*
X185145000Y-54590000D01*
X186689538Y-81730000D02*
G75*
G03X188234830Y-76180000I462J2990000D01*
G01*
X186690462Y-81730000D02*
G75*
G02X185145170Y-76180000I-462J2990000D01*
G01*
X189190000Y-78740000D02*
G75*
G03X189190000Y-78740000I-2500000J0D01*
G01*
X188235000Y-76180000D02*
X185145000Y-76180000D01*
D11*
X107852381Y-77723333D02*
X108566667Y-77723333D01*
X108709524Y-77770953D01*
X108804762Y-77866191D01*
X108852381Y-78009048D01*
X108852381Y-78104286D01*
X107947619Y-77294762D02*
X107900000Y-77247143D01*
X107852381Y-77151905D01*
X107852381Y-76913809D01*
X107900000Y-76818571D01*
X107947619Y-76770952D01*
X108042857Y-76723333D01*
X108138095Y-76723333D01*
X108280952Y-76770952D01*
X108852381Y-77342381D01*
X108852381Y-76723333D01*
X159682381Y-79501905D02*
X160491905Y-79501905D01*
X160587143Y-79454286D01*
X160634762Y-79406667D01*
X160682381Y-79311429D01*
X160682381Y-79120952D01*
X160634762Y-79025714D01*
X160587143Y-78978095D01*
X160491905Y-78930476D01*
X159682381Y-78930476D01*
X159777619Y-78501905D02*
X159730000Y-78454286D01*
X159682381Y-78359048D01*
X159682381Y-78120952D01*
X159730000Y-78025714D01*
X159777619Y-77978095D01*
X159872857Y-77930476D01*
X159968095Y-77930476D01*
X160110952Y-77978095D01*
X160682381Y-78549524D01*
X160682381Y-77930476D01*
X159682381Y-59181905D02*
X160491905Y-59181905D01*
X160587143Y-59134286D01*
X160634762Y-59086667D01*
X160682381Y-58991429D01*
X160682381Y-58800952D01*
X160634762Y-58705714D01*
X160587143Y-58658095D01*
X160491905Y-58610476D01*
X159682381Y-58610476D01*
X160682381Y-57610476D02*
X160682381Y-58181905D01*
X160682381Y-57896191D02*
X159682381Y-57896191D01*
X159825238Y-57991429D01*
X159920476Y-58086667D01*
X159968095Y-58181905D01*
X186523334Y-95022381D02*
X186190000Y-94546190D01*
X185951905Y-95022381D02*
X185951905Y-94022381D01*
X186332858Y-94022381D01*
X186428096Y-94070000D01*
X186475715Y-94117619D01*
X186523334Y-94212857D01*
X186523334Y-94355714D01*
X186475715Y-94450952D01*
X186428096Y-94498571D01*
X186332858Y-94546190D01*
X185951905Y-94546190D01*
X186856667Y-94022381D02*
X187523334Y-94022381D01*
X187094762Y-95022381D01*
X186523334Y-46762381D02*
X186190000Y-46286190D01*
X185951905Y-46762381D02*
X185951905Y-45762381D01*
X186332858Y-45762381D01*
X186428096Y-45810000D01*
X186475715Y-45857619D01*
X186523334Y-45952857D01*
X186523334Y-46095714D01*
X186475715Y-46190952D01*
X186428096Y-46238571D01*
X186332858Y-46286190D01*
X185951905Y-46286190D01*
X187380477Y-45762381D02*
X187190000Y-45762381D01*
X187094762Y-45810000D01*
X187047143Y-45857619D01*
X186951905Y-46000476D01*
X186904286Y-46190952D01*
X186904286Y-46571905D01*
X186951905Y-46667143D01*
X186999524Y-46714762D01*
X187094762Y-46762381D01*
X187285239Y-46762381D01*
X187380477Y-46714762D01*
X187428096Y-46667143D01*
X187475715Y-46571905D01*
X187475715Y-46333810D01*
X187428096Y-46238571D01*
X187380477Y-46190952D01*
X187285239Y-46143333D01*
X187094762Y-46143333D01*
X186999524Y-46190952D01*
X186951905Y-46238571D01*
X186904286Y-46333810D01*
X178842381Y-106846666D02*
X178366190Y-107180000D01*
X178842381Y-107418095D02*
X177842381Y-107418095D01*
X177842381Y-107037142D01*
X177890000Y-106941904D01*
X177937619Y-106894285D01*
X178032857Y-106846666D01*
X178175714Y-106846666D01*
X178270952Y-106894285D01*
X178318571Y-106941904D01*
X178366190Y-107037142D01*
X178366190Y-107418095D01*
X177842381Y-105941904D02*
X177842381Y-106418095D01*
X178318571Y-106465714D01*
X178270952Y-106418095D01*
X178223333Y-106322857D01*
X178223333Y-106084761D01*
X178270952Y-105989523D01*
X178318571Y-105941904D01*
X178413810Y-105894285D01*
X178651905Y-105894285D01*
X178747143Y-105941904D01*
X178794762Y-105989523D01*
X178842381Y-106084761D01*
X178842381Y-106322857D01*
X178794762Y-106418095D01*
X178747143Y-106465714D01*
X172553334Y-46762381D02*
X172220000Y-46286190D01*
X171981905Y-46762381D02*
X171981905Y-45762381D01*
X172362858Y-45762381D01*
X172458096Y-45810000D01*
X172505715Y-45857619D01*
X172553334Y-45952857D01*
X172553334Y-46095714D01*
X172505715Y-46190952D01*
X172458096Y-46238571D01*
X172362858Y-46286190D01*
X171981905Y-46286190D01*
X173410477Y-46095714D02*
X173410477Y-46762381D01*
X173172381Y-45714762D02*
X172934286Y-46429048D01*
X173553334Y-46429048D01*
X143282381Y-103036666D02*
X142806190Y-103370000D01*
X143282381Y-103608095D02*
X142282381Y-103608095D01*
X142282381Y-103227142D01*
X142330000Y-103131904D01*
X142377619Y-103084285D01*
X142472857Y-103036666D01*
X142615714Y-103036666D01*
X142710952Y-103084285D01*
X142758571Y-103131904D01*
X142806190Y-103227142D01*
X142806190Y-103608095D01*
X142282381Y-102703333D02*
X142282381Y-102084285D01*
X142663333Y-102417619D01*
X142663333Y-102274761D01*
X142710952Y-102179523D01*
X142758571Y-102131904D01*
X142853810Y-102084285D01*
X143091905Y-102084285D01*
X143187143Y-102131904D01*
X143234762Y-102179523D01*
X143282381Y-102274761D01*
X143282381Y-102560476D01*
X143234762Y-102655714D01*
X143187143Y-102703333D01*
X143282381Y-77001666D02*
X142806190Y-77335000D01*
X143282381Y-77573095D02*
X142282381Y-77573095D01*
X142282381Y-77192142D01*
X142330000Y-77096904D01*
X142377619Y-77049285D01*
X142472857Y-77001666D01*
X142615714Y-77001666D01*
X142710952Y-77049285D01*
X142758571Y-77096904D01*
X142806190Y-77192142D01*
X142806190Y-77573095D01*
X142377619Y-76620714D02*
X142330000Y-76573095D01*
X142282381Y-76477857D01*
X142282381Y-76239761D01*
X142330000Y-76144523D01*
X142377619Y-76096904D01*
X142472857Y-76049285D01*
X142568095Y-76049285D01*
X142710952Y-76096904D01*
X143282381Y-76668333D01*
X143282381Y-76049285D01*
X143282381Y-48426666D02*
X142806190Y-48760000D01*
X143282381Y-48998095D02*
X142282381Y-48998095D01*
X142282381Y-48617142D01*
X142330000Y-48521904D01*
X142377619Y-48474285D01*
X142472857Y-48426666D01*
X142615714Y-48426666D01*
X142710952Y-48474285D01*
X142758571Y-48521904D01*
X142806190Y-48617142D01*
X142806190Y-48998095D01*
X143282381Y-47474285D02*
X143282381Y-48045714D01*
X143282381Y-47760000D02*
X142282381Y-47760000D01*
X142425238Y-47855238D01*
X142520476Y-47950476D01*
X142568095Y-48045714D01*
X107852381Y-49783333D02*
X108566667Y-49783333D01*
X108709524Y-49830953D01*
X108804762Y-49926191D01*
X108852381Y-50069048D01*
X108852381Y-50164286D01*
X107852381Y-49402381D02*
X107852381Y-48783333D01*
X108233333Y-49116667D01*
X108233333Y-48973809D01*
X108280952Y-48878571D01*
X108328571Y-48830952D01*
X108423810Y-48783333D01*
X108661905Y-48783333D01*
X108757143Y-48830952D01*
X108804762Y-48878571D01*
X108852381Y-48973809D01*
X108852381Y-49259524D01*
X108804762Y-49354762D01*
X108757143Y-49402381D01*
X109122381Y-104433333D02*
X109836667Y-104433333D01*
X109979524Y-104480953D01*
X110074762Y-104576191D01*
X110122381Y-104719048D01*
X110122381Y-104814286D01*
X110122381Y-103433333D02*
X110122381Y-104004762D01*
X110122381Y-103719048D02*
X109122381Y-103719048D01*
X109265238Y-103814286D01*
X109360476Y-103909524D01*
X109408095Y-104004762D01*
X191102381Y-66778095D02*
X190102381Y-66778095D01*
X190102381Y-66540000D01*
X190150000Y-66397142D01*
X190245238Y-66301904D01*
X190340476Y-66254285D01*
X190530952Y-66206666D01*
X190673810Y-66206666D01*
X190864286Y-66254285D01*
X190959524Y-66301904D01*
X191054762Y-66397142D01*
X191102381Y-66540000D01*
X191102381Y-66778095D01*
X190197619Y-65825714D02*
X190150000Y-65778095D01*
X190102381Y-65682857D01*
X190102381Y-65444761D01*
X190150000Y-65349523D01*
X190197619Y-65301904D01*
X190292857Y-65254285D01*
X190388095Y-65254285D01*
X190530952Y-65301904D01*
X191102381Y-65873333D01*
X191102381Y-65254285D01*
X191102381Y-57888095D02*
X190102381Y-57888095D01*
X190102381Y-57650000D01*
X190150000Y-57507142D01*
X190245238Y-57411904D01*
X190340476Y-57364285D01*
X190530952Y-57316666D01*
X190673810Y-57316666D01*
X190864286Y-57364285D01*
X190959524Y-57411904D01*
X191054762Y-57507142D01*
X191102381Y-57650000D01*
X191102381Y-57888095D01*
X191102381Y-56364285D02*
X191102381Y-56935714D01*
X191102381Y-56650000D02*
X190102381Y-56650000D01*
X190245238Y-56745238D01*
X190340476Y-56840476D01*
X190388095Y-56935714D01*
X191102381Y-79478095D02*
X190102381Y-79478095D01*
X190102381Y-79240000D01*
X190150000Y-79097142D01*
X190245238Y-79001904D01*
X190340476Y-78954285D01*
X190530952Y-78906666D01*
X190673810Y-78906666D01*
X190864286Y-78954285D01*
X190959524Y-79001904D01*
X191054762Y-79097142D01*
X191102381Y-79240000D01*
X191102381Y-79478095D01*
X190102381Y-78573333D02*
X190102381Y-77954285D01*
X190483333Y-78287619D01*
X190483333Y-78144761D01*
X190530952Y-78049523D01*
X190578571Y-78001904D01*
X190673810Y-77954285D01*
X190911905Y-77954285D01*
X191007143Y-78001904D01*
X191054762Y-78049523D01*
X191102381Y-78144761D01*
X191102381Y-78430476D01*
X191054762Y-78525714D01*
X191007143Y-78573333D01*
M02*
