<?xml version="1.0" standalone="no"?>
 <!DOCTYPE svg PUBLIC "-//W3C//DTD SVG 1.1//EN" 
 "http://www.w3.org/Graphics/SVG/1.1/DTD/svg11.dtd"> 
<svg xmlns="http://www.w3.org/2000/svg" version="1.1" 
    width="29.7002cm" height="21.0007cm" viewBox="0 0 116930 82680 ">
<title>SVG Picture created as Window Detector-F.SilkS.svg date 2017/09/26 21:34:11 </title>
  <desc>Picture generated by PCBNEW </desc>
<g style="fill:#000000; fill-opacity:1;stroke:#000000; stroke-opacity:1;
stroke-linecap:round; stroke-linejoin:round; "
 transform="translate(0 0) scale(1 1)">
</g>
<g style="fill:#000000; fill-opacity:0.0; 
stroke:#000000; stroke-width:-0.000393701; stroke-opacity:1; 
stroke-linecap:round; stroke-linejoin:round;">
</g>
<g style="fill:#000000; fill-opacity:0.0; 
stroke:#000000; stroke-width:39.3701; stroke-opacity:1; 
stroke-linecap:round; stroke-linejoin:round;">
</g>
<g style="fill:#000000; fill-opacity:0.0; 
stroke:#000000; stroke-width:59.0551; stroke-opacity:1; 
stroke-linecap:round; stroke-linejoin:round;">
<rect x="69685.9" y="65357.2" width="42519.7" height="12598.4" rx="0" />
</g>
<g style="fill:#000000; fill-opacity:0.0; 
stroke:#000000; stroke-width:39.3701; stroke-opacity:1; 
stroke-linecap:round; stroke-linejoin:round;">
</g>
<g style="fill:#000000; fill-opacity:0.0; 
stroke:#000000; stroke-width:59.0551; stroke-opacity:1; 
stroke-linecap:round; stroke-linejoin:round;">
<rect x="3937.01" y="3937.01" width="109056" height="74806" rx="0" />
</g>
<g style="fill:#000000; fill-opacity:0.0; 
stroke:#000000; stroke-width:39.3701; stroke-opacity:1; 
stroke-linecap:round; stroke-linejoin:round;">
</g>
<g style="fill:#000000; fill-opacity:0.0; 
stroke:#000000; stroke-width:59.0551; stroke-opacity:1; 
stroke-linecap:round; stroke-linejoin:round;">
<rect x="4724.41" y="4724.41" width="107481" height="73231.2" rx="0" />
</g>
<g style="fill:#000000; fill-opacity:0.0; 
stroke:#000000; stroke-width:39.3701; stroke-opacity:1; 
stroke-linecap:round; stroke-linejoin:round;">
</g>
<g style="fill:#000000; fill-opacity:0.0; 
stroke:#000000; stroke-width:59.0551; stroke-opacity:1; 
stroke-linecap:round; stroke-linejoin:round;">
<path d="M23622 4724
L23622 3937
" />
</g>
<g style="fill:#000000; fill-opacity:0.0; 
stroke:#000000; stroke-width:39.3701; stroke-opacity:1; 
stroke-linecap:round; stroke-linejoin:round;">
</g>
<g style="fill:#000000; fill-opacity:0.0; 
stroke:#000000; stroke-width:59.0551; stroke-opacity:1; 
stroke-linecap:round; stroke-linejoin:round;">
<path d="M43307 4724
L43307 3937
" />
</g>
<g style="fill:#000000; fill-opacity:0.0; 
stroke:#000000; stroke-width:39.3701; stroke-opacity:1; 
stroke-linecap:round; stroke-linejoin:round;">
</g>
<g style="fill:#000000; fill-opacity:0.0; 
stroke:#000000; stroke-width:59.0551; stroke-opacity:1; 
stroke-linecap:round; stroke-linejoin:round;">
<path d="M62992 4724
L62992 3937
" />
</g>
<g style="fill:#000000; fill-opacity:0.0; 
stroke:#000000; stroke-width:39.3701; stroke-opacity:1; 
stroke-linecap:round; stroke-linejoin:round;">
</g>
<g style="fill:#000000; fill-opacity:0.0; 
stroke:#000000; stroke-width:59.0551; stroke-opacity:1; 
stroke-linecap:round; stroke-linejoin:round;">
<path d="M82677 4724
L82677 3937
" />
</g>
<g style="fill:#000000; fill-opacity:0.0; 
stroke:#000000; stroke-width:39.3701; stroke-opacity:1; 
stroke-linecap:round; stroke-linejoin:round;">
</g>
<g style="fill:#000000; fill-opacity:0.0; 
stroke:#000000; stroke-width:59.0551; stroke-opacity:1; 
stroke-linecap:round; stroke-linejoin:round;">
<path d="M102362 4724
L102362 3937
" />
</g>
<g style="fill:#000000; fill-opacity:0.0; 
stroke:#000000; stroke-width:39.3701; stroke-opacity:1; 
stroke-linecap:round; stroke-linejoin:round;">
</g>
<g style="fill:#000000; fill-opacity:0.0; 
stroke:#000000; stroke-width:59.0551; stroke-opacity:1; 
stroke-linecap:round; stroke-linejoin:round;">
<path d="M14169 4562
L13877 4562
" />
<path d="M14023 4562
L14023 4050
L13974 4123
L13925 4172
L13877 4196
" />
</g>
<g style="fill:#000000; fill-opacity:0.0; 
stroke:#000000; stroke-width:39.3701; stroke-opacity:1; 
stroke-linecap:round; stroke-linejoin:round;">
</g>
<g style="fill:#000000; fill-opacity:0.0; 
stroke:#000000; stroke-width:59.0551; stroke-opacity:1; 
stroke-linecap:round; stroke-linejoin:round;">
<path d="M33562 4099
L33586 4074
L33635 4050
L33757 4050
L33805 4074
L33830 4099
L33854 4147
L33854 4196
L33830 4269
L33537 4562
L33854 4562
" />
</g>
<g style="fill:#000000; fill-opacity:0.0; 
stroke:#000000; stroke-width:39.3701; stroke-opacity:1; 
stroke-linecap:round; stroke-linejoin:round;">
</g>
<g style="fill:#000000; fill-opacity:0.0; 
stroke:#000000; stroke-width:59.0551; stroke-opacity:1; 
stroke-linecap:round; stroke-linejoin:round;">
<path d="M53222 4050
L53539 4050
L53368 4245
L53442 4245
L53490 4269
L53515 4294
L53539 4342
L53539 4464
L53515 4513
L53490 4537
L53442 4562
L53295 4562
L53247 4537
L53222 4513
" />
</g>
<g style="fill:#000000; fill-opacity:0.0; 
stroke:#000000; stroke-width:39.3701; stroke-opacity:1; 
stroke-linecap:round; stroke-linejoin:round;">
</g>
<g style="fill:#000000; fill-opacity:0.0; 
stroke:#000000; stroke-width:59.0551; stroke-opacity:1; 
stroke-linecap:round; stroke-linejoin:round;">
<path d="M73175 4221
L73175 4562
" />
<path d="M73053 4026
L72932 4391
L73248 4391
" />
</g>
<g style="fill:#000000; fill-opacity:0.0; 
stroke:#000000; stroke-width:39.3701; stroke-opacity:1; 
stroke-linecap:round; stroke-linejoin:round;">
</g>
<g style="fill:#000000; fill-opacity:0.0; 
stroke:#000000; stroke-width:59.0551; stroke-opacity:1; 
stroke-linecap:round; stroke-linejoin:round;">
<path d="M92885 4050
L92641 4050
L92617 4294
L92641 4269
L92690 4245
L92812 4245
L92860 4269
L92885 4294
L92909 4342
L92909 4464
L92885 4513
L92860 4537
L92812 4562
L92690 4562
L92641 4537
L92617 4513
" />
</g>
<g style="fill:#000000; fill-opacity:0.0; 
stroke:#000000; stroke-width:39.3701; stroke-opacity:1; 
stroke-linecap:round; stroke-linejoin:round;">
</g>
<g style="fill:#000000; fill-opacity:0.0; 
stroke:#000000; stroke-width:59.0551; stroke-opacity:1; 
stroke-linecap:round; stroke-linejoin:round;">
<path d="M112545 4050
L112448 4050
L112399 4074
L112375 4099
L112326 4172
L112302 4269
L112302 4464
L112326 4513
L112350 4537
L112399 4562
L112497 4562
L112545 4537
L112570 4513
L112594 4464
L112594 4342
L112570 4294
L112545 4269
L112497 4245
L112399 4245
L112350 4269
L112326 4294
L112302 4342
" />
</g>
<g style="fill:#000000; fill-opacity:0.0; 
stroke:#000000; stroke-width:39.3701; stroke-opacity:1; 
stroke-linecap:round; stroke-linejoin:round;">
</g>
<g style="fill:#000000; fill-opacity:0.0; 
stroke:#000000; stroke-width:59.0551; stroke-opacity:1; 
stroke-linecap:round; stroke-linejoin:round;">
<path d="M23622 77955
L23622 78742
" />
</g>
<g style="fill:#000000; fill-opacity:0.0; 
stroke:#000000; stroke-width:39.3701; stroke-opacity:1; 
stroke-linecap:round; stroke-linejoin:round;">
</g>
<g style="fill:#000000; fill-opacity:0.0; 
stroke:#000000; stroke-width:59.0551; stroke-opacity:1; 
stroke-linecap:round; stroke-linejoin:round;">
<path d="M43307 77955
L43307 78742
" />
</g>
<g style="fill:#000000; fill-opacity:0.0; 
stroke:#000000; stroke-width:39.3701; stroke-opacity:1; 
stroke-linecap:round; stroke-linejoin:round;">
</g>
<g style="fill:#000000; fill-opacity:0.0; 
stroke:#000000; stroke-width:59.0551; stroke-opacity:1; 
stroke-linecap:round; stroke-linejoin:round;">
<path d="M62992 77955
L62992 78742
" />
</g>
<g style="fill:#000000; fill-opacity:0.0; 
stroke:#000000; stroke-width:39.3701; stroke-opacity:1; 
stroke-linecap:round; stroke-linejoin:round;">
</g>
<g style="fill:#000000; fill-opacity:0.0; 
stroke:#000000; stroke-width:59.0551; stroke-opacity:1; 
stroke-linecap:round; stroke-linejoin:round;">
<path d="M82677 77955
L82677 78742
" />
</g>
<g style="fill:#000000; fill-opacity:0.0; 
stroke:#000000; stroke-width:39.3701; stroke-opacity:1; 
stroke-linecap:round; stroke-linejoin:round;">
</g>
<g style="fill:#000000; fill-opacity:0.0; 
stroke:#000000; stroke-width:59.0551; stroke-opacity:1; 
stroke-linecap:round; stroke-linejoin:round;">
<path d="M102362 77955
L102362 78742
" />
</g>
<g style="fill:#000000; fill-opacity:0.0; 
stroke:#000000; stroke-width:39.3701; stroke-opacity:1; 
stroke-linecap:round; stroke-linejoin:round;">
</g>
<g style="fill:#000000; fill-opacity:0.0; 
stroke:#000000; stroke-width:59.0551; stroke-opacity:1; 
stroke-linecap:round; stroke-linejoin:round;">
<path d="M14169 78580
L13877 78580
" />
<path d="M14023 78580
L14023 78069
L13974 78142
L13925 78190
L13877 78215
" />
</g>
<g style="fill:#000000; fill-opacity:0.0; 
stroke:#000000; stroke-width:39.3701; stroke-opacity:1; 
stroke-linecap:round; stroke-linejoin:round;">
</g>
<g style="fill:#000000; fill-opacity:0.0; 
stroke:#000000; stroke-width:59.0551; stroke-opacity:1; 
stroke-linecap:round; stroke-linejoin:round;">
<path d="M33562 78117
L33586 78093
L33635 78069
L33757 78069
L33805 78093
L33830 78117
L33854 78166
L33854 78215
L33830 78288
L33537 78580
L33854 78580
" />
</g>
<g style="fill:#000000; fill-opacity:0.0; 
stroke:#000000; stroke-width:39.3701; stroke-opacity:1; 
stroke-linecap:round; stroke-linejoin:round;">
</g>
<g style="fill:#000000; fill-opacity:0.0; 
stroke:#000000; stroke-width:59.0551; stroke-opacity:1; 
stroke-linecap:round; stroke-linejoin:round;">
<path d="M53222 78069
L53539 78069
L53368 78263
L53442 78263
L53490 78288
L53515 78312
L53539 78361
L53539 78483
L53515 78532
L53490 78556
L53442 78580
L53295 78580
L53247 78556
L53222 78532
" />
</g>
<g style="fill:#000000; fill-opacity:0.0; 
stroke:#000000; stroke-width:39.3701; stroke-opacity:1; 
stroke-linecap:round; stroke-linejoin:round;">
</g>
<g style="fill:#000000; fill-opacity:0.0; 
stroke:#000000; stroke-width:59.0551; stroke-opacity:1; 
stroke-linecap:round; stroke-linejoin:round;">
<path d="M73175 78239
L73175 78580
" />
<path d="M73053 78044
L72932 78410
L73248 78410
" />
</g>
<g style="fill:#000000; fill-opacity:0.0; 
stroke:#000000; stroke-width:39.3701; stroke-opacity:1; 
stroke-linecap:round; stroke-linejoin:round;">
</g>
<g style="fill:#000000; fill-opacity:0.0; 
stroke:#000000; stroke-width:59.0551; stroke-opacity:1; 
stroke-linecap:round; stroke-linejoin:round;">
<path d="M92885 78069
L92641 78069
L92617 78312
L92641 78288
L92690 78263
L92812 78263
L92860 78288
L92885 78312
L92909 78361
L92909 78483
L92885 78532
L92860 78556
L92812 78580
L92690 78580
L92641 78556
L92617 78532
" />
</g>
<g style="fill:#000000; fill-opacity:0.0; 
stroke:#000000; stroke-width:39.3701; stroke-opacity:1; 
stroke-linecap:round; stroke-linejoin:round;">
</g>
<g style="fill:#000000; fill-opacity:0.0; 
stroke:#000000; stroke-width:59.0551; stroke-opacity:1; 
stroke-linecap:round; stroke-linejoin:round;">
<path d="M112545 78069
L112448 78069
L112399 78093
L112375 78117
L112326 78190
L112302 78288
L112302 78483
L112326 78532
L112350 78556
L112399 78580
L112497 78580
L112545 78556
L112570 78532
L112594 78483
L112594 78361
L112570 78312
L112545 78288
L112497 78263
L112399 78263
L112350 78288
L112326 78312
L112302 78361
" />
</g>
<g style="fill:#000000; fill-opacity:0.0; 
stroke:#000000; stroke-width:39.3701; stroke-opacity:1; 
stroke-linecap:round; stroke-linejoin:round;">
</g>
<g style="fill:#000000; fill-opacity:0.0; 
stroke:#000000; stroke-width:59.0551; stroke-opacity:1; 
stroke-linecap:round; stroke-linejoin:round;">
<path d="M3937 23622
L4724 23622
" />
</g>
<g style="fill:#000000; fill-opacity:0.0; 
stroke:#000000; stroke-width:39.3701; stroke-opacity:1; 
stroke-linecap:round; stroke-linejoin:round;">
</g>
<g style="fill:#000000; fill-opacity:0.0; 
stroke:#000000; stroke-width:59.0551; stroke-opacity:1; 
stroke-linecap:round; stroke-linejoin:round;">
<path d="M3937 43307
L4724 43307
" />
</g>
<g style="fill:#000000; fill-opacity:0.0; 
stroke:#000000; stroke-width:39.3701; stroke-opacity:1; 
stroke-linecap:round; stroke-linejoin:round;">
</g>
<g style="fill:#000000; fill-opacity:0.0; 
stroke:#000000; stroke-width:59.0551; stroke-opacity:1; 
stroke-linecap:round; stroke-linejoin:round;">
<path d="M3937 62992
L4724 62992
" />
</g>
<g style="fill:#000000; fill-opacity:0.0; 
stroke:#000000; stroke-width:39.3701; stroke-opacity:1; 
stroke-linecap:round; stroke-linejoin:round;">
</g>
<g style="fill:#000000; fill-opacity:0.0; 
stroke:#000000; stroke-width:59.0551; stroke-opacity:1; 
stroke-linecap:round; stroke-linejoin:round;">
<path d="M4208 13864
L4452 13864
" />
<path d="M4160 14011
L4330 13499
L4501 14011
" />
</g>
<g style="fill:#000000; fill-opacity:0.0; 
stroke:#000000; stroke-width:39.3701; stroke-opacity:1; 
stroke-linecap:round; stroke-linejoin:round;">
</g>
<g style="fill:#000000; fill-opacity:0.0; 
stroke:#000000; stroke-width:59.0551; stroke-opacity:1; 
stroke-linecap:round; stroke-linejoin:round;">
<path d="M4367 33428
L4440 33452
L4464 33476
L4489 33525
L4489 33598
L4464 33647
L4440 33671
L4391 33696
L4196 33696
L4196 33184
L4367 33184
L4416 33208
L4440 33233
L4464 33281
L4464 33330
L4440 33379
L4416 33403
L4367 33428
L4196 33428
" />
</g>
<g style="fill:#000000; fill-opacity:0.0; 
stroke:#000000; stroke-width:39.3701; stroke-opacity:1; 
stroke-linecap:round; stroke-linejoin:round;">
</g>
<g style="fill:#000000; fill-opacity:0.0; 
stroke:#000000; stroke-width:59.0551; stroke-opacity:1; 
stroke-linecap:round; stroke-linejoin:round;">
<path d="M4489 53332
L4464 53356
L4391 53381
L4342 53381
L4269 53356
L4221 53308
L4196 53259
L4172 53161
L4172 53088
L4196 52991
L4221 52942
L4269 52893
L4342 52869
L4391 52869
L4464 52893
L4489 52918
" />
</g>
<g style="fill:#000000; fill-opacity:0.0; 
stroke:#000000; stroke-width:39.3701; stroke-opacity:1; 
stroke-linecap:round; stroke-linejoin:round;">
</g>
<g style="fill:#000000; fill-opacity:0.0; 
stroke:#000000; stroke-width:59.0551; stroke-opacity:1; 
stroke-linecap:round; stroke-linejoin:round;">
<path d="M4196 73066
L4196 72554
L4318 72554
L4391 72578
L4440 72627
L4464 72676
L4489 72773
L4489 72846
L4464 72944
L4440 72993
L4391 73041
L4318 73066
L4196 73066
" />
</g>
<g style="fill:#000000; fill-opacity:0.0; 
stroke:#000000; stroke-width:39.3701; stroke-opacity:1; 
stroke-linecap:round; stroke-linejoin:round;">
</g>
<g style="fill:#000000; fill-opacity:0.0; 
stroke:#000000; stroke-width:59.0551; stroke-opacity:1; 
stroke-linecap:round; stroke-linejoin:round;">
<path d="M112992 23622
L112205 23622
" />
</g>
<g style="fill:#000000; fill-opacity:0.0; 
stroke:#000000; stroke-width:39.3701; stroke-opacity:1; 
stroke-linecap:round; stroke-linejoin:round;">
</g>
<g style="fill:#000000; fill-opacity:0.0; 
stroke:#000000; stroke-width:59.0551; stroke-opacity:1; 
stroke-linecap:round; stroke-linejoin:round;">
<path d="M112992 43307
L112205 43307
" />
</g>
<g style="fill:#000000; fill-opacity:0.0; 
stroke:#000000; stroke-width:39.3701; stroke-opacity:1; 
stroke-linecap:round; stroke-linejoin:round;">
</g>
<g style="fill:#000000; fill-opacity:0.0; 
stroke:#000000; stroke-width:59.0551; stroke-opacity:1; 
stroke-linecap:round; stroke-linejoin:round;">
<path d="M112992 62992
L112205 62992
" />
</g>
<g style="fill:#000000; fill-opacity:0.0; 
stroke:#000000; stroke-width:39.3701; stroke-opacity:1; 
stroke-linecap:round; stroke-linejoin:round;">
</g>
<g style="fill:#000000; fill-opacity:0.0; 
stroke:#000000; stroke-width:59.0551; stroke-opacity:1; 
stroke-linecap:round; stroke-linejoin:round;">
<path d="M112477 13864
L112721 13864
" />
<path d="M112428 14011
L112599 13499
L112769 14011
" />
</g>
<g style="fill:#000000; fill-opacity:0.0; 
stroke:#000000; stroke-width:39.3701; stroke-opacity:1; 
stroke-linecap:round; stroke-linejoin:round;">
</g>
<g style="fill:#000000; fill-opacity:0.0; 
stroke:#000000; stroke-width:59.0551; stroke-opacity:1; 
stroke-linecap:round; stroke-linejoin:round;">
<path d="M112635 33428
L112708 33452
L112733 33476
L112757 33525
L112757 33598
L112733 33647
L112708 33671
L112660 33696
L112465 33696
L112465 33184
L112635 33184
L112684 33208
L112708 33233
L112733 33281
L112733 33330
L112708 33379
L112684 33403
L112635 33428
L112465 33428
" />
</g>
<g style="fill:#000000; fill-opacity:0.0; 
stroke:#000000; stroke-width:39.3701; stroke-opacity:1; 
stroke-linecap:round; stroke-linejoin:round;">
</g>
<g style="fill:#000000; fill-opacity:0.0; 
stroke:#000000; stroke-width:59.0551; stroke-opacity:1; 
stroke-linecap:round; stroke-linejoin:round;">
<path d="M112757 53332
L112733 53356
L112660 53381
L112611 53381
L112538 53356
L112489 53308
L112465 53259
L112440 53161
L112440 53088
L112465 52991
L112489 52942
L112538 52893
L112611 52869
L112660 52869
L112733 52893
L112757 52918
" />
</g>
<g style="fill:#000000; fill-opacity:0.0; 
stroke:#000000; stroke-width:39.3701; stroke-opacity:1; 
stroke-linecap:round; stroke-linejoin:round;">
</g>
<g style="fill:#000000; fill-opacity:0.0; 
stroke:#000000; stroke-width:59.0551; stroke-opacity:1; 
stroke-linecap:round; stroke-linejoin:round;">
<path d="M112465 73066
L112465 72554
L112587 72554
L112660 72578
L112708 72627
L112733 72676
L112757 72773
L112757 72846
L112733 72944
L112708 72993
L112660 73041
L112587 73066
L112465 73066
" />
</g>
<g style="fill:#000000; fill-opacity:0.0; 
stroke:#000000; stroke-width:39.3701; stroke-opacity:1; 
stroke-linecap:round; stroke-linejoin:round;">
</g>
<g style="fill:#000000; fill-opacity:0.0; 
stroke:#000000; stroke-width:59.0551; stroke-opacity:1; 
stroke-linecap:round; stroke-linejoin:round;">
<path d="M78881 76293
L78881 75703
L79022 75703
L79106 75731
L79162 75787
L79190 75843
L79219 75956
L79219 76040
L79190 76153
L79162 76209
L79106 76265
L79022 76293
L78881 76293
" />
<path d="M79725 76293
L79725 75984
L79697 75928
L79640 75899
L79528 75899
L79472 75928
" />
<path d="M79725 76265
L79669 76293
L79528 76293
L79472 76265
L79444 76209
L79444 76153
L79472 76096
L79528 76068
L79669 76068
L79725 76040
" />
<path d="M79922 75899
L80147 75899
" />
<path d="M80006 75703
L80006 76209
L80034 76265
L80090 76293
L80147 76293
" />
<path d="M80568 76265
L80512 76293
L80400 76293
L80343 76265
L80315 76209
L80315 75984
L80343 75928
L80400 75899
L80512 75899
L80568 75928
L80597 75984
L80597 76040
L80315 76096
" />
<path d="M80850 76237
L80878 76265
L80850 76293
L80822 76265
L80850 76237
L80850 76293
" />
<path d="M80850 75928
L80878 75956
L80850 75984
L80822 75956
L80850 75928
L80850 75984
" />
<path d="M81553 75759
L81581 75731
L81637 75703
L81778 75703
L81834 75731
L81862 75759
L81890 75815
L81890 75871
L81862 75956
L81525 76293
L81890 76293
" />
<path d="M82256 75703
L82312 75703
L82368 75731
L82396 75759
L82424 75815
L82453 75928
L82453 76068
L82424 76181
L82396 76237
L82368 76265
L82312 76293
L82256 76293
L82199 76265
L82171 76237
L82143 76181
L82115 76068
L82115 75928
L82143 75815
L82171 75759
L82199 75731
L82256 75703
" />
<path d="M83015 76293
L82678 76293
" />
<path d="M82846 76293
L82846 75703
L82790 75787
L82734 75843
L82678 75871
" />
<path d="M83212 75703
L83606 75703
L83352 76293
" />
<path d="M83831 76068
L84280 76068
" />
<path d="M84674 75703
L84730 75703
L84787 75731
L84815 75759
L84843 75815
L84871 75928
L84871 76068
L84843 76181
L84815 76237
L84787 76265
L84730 76293
L84674 76293
L84618 76265
L84590 76237
L84562 76181
L84534 76068
L84534 75928
L84562 75815
L84590 75759
L84618 75731
L84674 75703
" />
<path d="M85152 76293
L85265 76293
L85321 76265
L85349 76237
L85405 76153
L85433 76040
L85433 75815
L85405 75759
L85377 75731
L85321 75703
L85208 75703
L85152 75731
L85124 75759
L85096 75815
L85096 75956
L85124 76012
L85152 76040
L85208 76068
L85321 76068
L85377 76040
L85405 76012
L85433 75956
" />
<path d="M85687 76068
L86136 76068
" />
<path d="M86390 75759
L86418 75731
L86474 75703
L86615 75703
L86671 75731
L86699 75759
L86727 75815
L86727 75871
L86699 75956
L86361 76293
L86727 76293
" />
<path d="M87233 75703
L87121 75703
L87064 75731
L87036 75759
L86980 75843
L86952 75956
L86952 76181
L86980 76237
L87008 76265
L87064 76293
L87177 76293
L87233 76265
L87261 76237
L87289 76181
L87289 76040
L87261 75984
L87233 75956
L87177 75928
L87064 75928
L87008 75956
L86980 75984
L86952 76040
" />
</g>
<g style="fill:#000000; fill-opacity:0.0; 
stroke:#000000; stroke-width:39.3701; stroke-opacity:1; 
stroke-linecap:round; stroke-linejoin:round;">
</g>
<g style="fill:#000000; fill-opacity:0.0; 
stroke:#000000; stroke-width:59.0551; stroke-opacity:1; 
stroke-linecap:round; stroke-linejoin:round;">
<path d="M69685 76577
L112205 76577
" />
</g>
<g style="fill:#000000; fill-opacity:0.0; 
stroke:#000000; stroke-width:39.3701; stroke-opacity:1; 
stroke-linecap:round; stroke-linejoin:round;">
</g>
<g style="fill:#000000; fill-opacity:0.0; 
stroke:#000000; stroke-width:59.0551; stroke-opacity:1; 
stroke-linecap:round; stroke-linejoin:round;">
<path d="M70220 77395
L70220 76805
" />
<path d="M70557 77395
L70304 77058
" />
<path d="M70557 76805
L70220 77142
" />
<path d="M70810 77395
L70810 77002
" />
<path d="M70810 76805
L70782 76833
L70810 76861
L70838 76833
L70810 76805
L70810 76861
" />
<path d="M71429 77339
L71401 77367
L71316 77395
L71260 77395
L71176 77367
L71120 77311
L71091 77255
L71063 77142
L71063 77058
L71091 76946
L71120 76889
L71176 76833
L71260 76805
L71316 76805
L71401 76833
L71429 76861
" />
<path d="M71935 77395
L71935 77086
L71907 77030
L71851 77002
L71738 77002
L71682 77030
" />
<path d="M71935 77367
L71879 77395
L71738 77395
L71682 77367
L71654 77311
L71654 77255
L71682 77199
L71738 77171
L71879 77171
L71935 77142
" />
<path d="M72469 77395
L72469 76805
" />
<path d="M72469 77367
L72413 77395
L72301 77395
L72244 77367
L72216 77339
L72188 77283
L72188 77114
L72216 77058
L72244 77030
L72301 77002
L72413 77002
L72469 77030
" />
<path d="M73201 77086
L73397 77086
" />
<path d="M73482 77395
L73201 77395
L73201 76805
L73482 76805
" />
<path d="M73735 77339
L73763 77367
L73735 77395
L73707 77367
L73735 77339
L73735 77395
" />
<path d="M74016 77395
L74016 76805
L74157 76805
L74241 76833
L74297 76889
L74325 76946
L74354 77058
L74354 77142
L74325 77255
L74297 77311
L74241 77367
L74157 77395
L74016 77395
" />
<path d="M74607 77339
L74635 77367
L74607 77395
L74579 77367
L74607 77339
L74607 77395
" />
<path d="M74860 77227
L75141 77227
" />
<path d="M74804 77395
L75000 76805
L75197 77395
" />
<path d="M75394 77339
L75422 77367
L75394 77395
L75366 77367
L75394 77339
L75394 77395
" />
<path d="M76575 77395
L76575 76805
" />
<path d="M76631 77171
L76800 77395
" />
<path d="M76800 77002
L76575 77227
" />
<path d="M77053 77395
L77053 77002
" />
<path d="M77053 76805
L77025 76833
L77053 76861
L77081 76833
L77053 76805
L77053 76861
" />
<path d="M77588 77367
L77531 77395
L77419 77395
L77363 77367
L77334 77339
L77306 77283
L77306 77114
L77334 77058
L77363 77030
L77419 77002
L77531 77002
L77588 77030
" />
<path d="M78094 77395
L78094 77086
L78066 77030
L78009 77002
L77897 77002
L77841 77030
" />
<path d="M78094 77367
L78037 77395
L77897 77395
L77841 77367
L77813 77311
L77813 77255
L77841 77199
L77897 77171
L78037 77171
L78094 77142
" />
<path d="M78628 77395
L78628 76805
" />
<path d="M78628 77367
L78572 77395
L78459 77395
L78403 77367
L78375 77339
L78347 77283
L78347 77114
L78375 77058
L78403 77030
L78459 77002
L78572 77002
L78628 77030
" />
<path d="M79612 77002
L79612 77395
" />
<path d="M79472 76777
L79331 77199
L79697 77199
" />
<path d="M79922 77339
L79950 77367
L79922 77395
L79894 77367
L79922 77339
L79922 77395
" />
<path d="M80315 76805
L80372 76805
L80428 76833
L80456 76861
L80484 76917
L80512 77030
L80512 77171
L80484 77283
L80456 77339
L80428 77367
L80372 77395
L80315 77395
L80259 77367
L80231 77339
L80203 77283
L80175 77171
L80175 77030
L80203 76917
L80231 76861
L80259 76833
L80315 76805
" />
<path d="M80765 77339
L80793 77367
L80765 77395
L80737 77367
L80765 77339
L80765 77395
" />
<path d="M81300 76805
L81187 76805
L81131 76833
L81103 76861
L81046 76946
L81018 77058
L81018 77283
L81046 77339
L81075 77367
L81131 77395
L81243 77395
L81300 77367
L81328 77339
L81356 77283
L81356 77142
L81328 77086
L81300 77058
L81243 77030
L81131 77030
L81075 77058
L81046 77086
L81018 77142
" />
</g>
<g style="fill:#000000; fill-opacity:0.0; 
stroke:#000000; stroke-width:39.3701; stroke-opacity:1; 
stroke-linecap:round; stroke-linejoin:round;">
</g>
<g style="fill:#000000; fill-opacity:0.0; 
stroke:#000000; stroke-width:59.0551; stroke-opacity:1; 
stroke-linecap:round; stroke-linejoin:round;">
<path d="M69685 75396
L112205 75396
" />
</g>
<g style="fill:#000000; fill-opacity:0.0; 
stroke:#000000; stroke-width:39.3701; stroke-opacity:1; 
stroke-linecap:round; stroke-linejoin:round;">
</g>
<g style="fill:#000000; fill-opacity:0.0; 
stroke:#000000; stroke-width:118.11; stroke-opacity:1; 
stroke-linecap:round; stroke-linejoin:round;">
<path d="M104022 76293
L103825 76012
" />
<path d="M103684 76293
L103684 75703
L103909 75703
L103965 75731
L103994 75759
L104022 75815
L104022 75899
L103994 75956
L103965 75984
L103909 76012
L103684 76012
" />
<path d="M104500 76265
L104444 76293
L104331 76293
L104275 76265
L104247 76209
L104247 75984
L104275 75928
L104331 75899
L104444 75899
L104500 75928
L104528 75984
L104528 76040
L104247 76096
" />
<path d="M104725 75899
L104865 76293
L105006 75899
" />
<path d="M105231 76237
L105259 76265
L105231 76293
L105203 76265
L105231 76237
L105231 76293
" />
<path d="M105231 75928
L105259 75956
L105231 75984
L105203 75956
L105231 75928
L105231 75984
" />
</g>
<g style="fill:#000000; fill-opacity:0.0; 
stroke:#000000; stroke-width:39.3701; stroke-opacity:1; 
stroke-linecap:round; stroke-linejoin:round;">
</g>
<g style="fill:#000000; fill-opacity:0.0; 
stroke:#000000; stroke-width:59.0551; stroke-opacity:1; 
stroke-linecap:round; stroke-linejoin:round;">
<path d="M70192 76265
L70276 76293
L70417 76293
L70473 76265
L70501 76237
L70529 76181
L70529 76124
L70501 76068
L70473 76040
L70417 76012
L70304 75984
L70248 75956
L70220 75928
L70192 75871
L70192 75815
L70220 75759
L70248 75731
L70304 75703
L70445 75703
L70529 75731
" />
<path d="M70782 76293
L70782 75899
" />
<path d="M70782 75703
L70754 75731
L70782 75759
L70810 75731
L70782 75703
L70782 75759
" />
<path d="M71007 75899
L71316 75899
L71007 76293
L71316 76293
" />
<path d="M71766 76265
L71710 76293
L71598 76293
L71541 76265
L71513 76209
L71513 75984
L71541 75928
L71598 75899
L71710 75899
L71766 75928
L71795 75984
L71795 76040
L71513 76096
" />
<path d="M72048 76237
L72076 76265
L72048 76293
L72019 76265
L72048 76237
L72048 76293
" />
<path d="M72048 75928
L72076 75956
L72048 75984
L72019 75956
L72048 75928
L72048 75984
" />
<path d="M72751 76124
L73032 76124
" />
<path d="M72694 76293
L72891 75703
L73088 76293
" />
<path d="M73538 75899
L73538 76293
" />
<path d="M73397 75674
L73257 76096
L73622 76096
" />
</g>
<g style="fill:#000000; fill-opacity:0.0; 
stroke:#000000; stroke-width:39.3701; stroke-opacity:1; 
stroke-linecap:round; stroke-linejoin:round;">
</g>
<g style="fill:#000000; fill-opacity:0.0; 
stroke:#000000; stroke-width:59.0551; stroke-opacity:1; 
stroke-linecap:round; stroke-linejoin:round;">
<path d="M103684 77395
L103684 76805
" />
<path d="M104219 77395
L104219 76805
" />
<path d="M104219 77367
L104162 77395
L104050 77395
L103994 77367
L103965 77339
L103937 77283
L103937 77114
L103965 77058
L103994 77030
L104050 77002
L104162 77002
L104219 77030
" />
<path d="M104500 77339
L104528 77367
L104500 77395
L104472 77367
L104500 77339
L104500 77395
" />
<path d="M104500 77030
L104528 77058
L104500 77086
L104472 77058
L104500 77030
L104500 77086
" />
<path d="M105540 77395
L105203 77395
" />
<path d="M105372 77395
L105372 76805
L105315 76889
L105259 76946
L105203 76974
" />
<path d="M106215 76777
L105709 77536
" />
<path d="M106721 77395
L106384 77395
" />
<path d="M106553 77395
L106553 76805
L106496 76889
L106440 76946
L106384 76974
" />
</g>
<g style="fill:#000000; fill-opacity:0.0; 
stroke:#000000; stroke-width:39.3701; stroke-opacity:1; 
stroke-linecap:round; stroke-linejoin:round;">
</g>
<g style="fill:#000000; fill-opacity:0.0; 
stroke:#000000; stroke-width:59.0551; stroke-opacity:1; 
stroke-linecap:round; stroke-linejoin:round;">
<path d="M69685 73821
L112205 73821
" />
</g>
<g style="fill:#000000; fill-opacity:0.0; 
stroke:#000000; stroke-width:39.3701; stroke-opacity:1; 
stroke-linecap:round; stroke-linejoin:round;">
</g>
<g style="fill:#000000; fill-opacity:0.0; 
stroke:#000000; stroke-width:157.48; stroke-opacity:1; 
stroke-linecap:round; stroke-linejoin:round;">
<path d="M70257 74099
L70707 74099
" />
<path d="M70384 74886
L70482 74099
" />
<path d="M70871 74886
L70937 74361
" />
<path d="M70970 74099
L70927 74136
L70960 74174
L71002 74136
L70970 74099
L70960 74174
" />
<path d="M71199 74361
L71499 74361
" />
<path d="M71345 74099
L71260 74774
L71288 74849
L71359 74886
L71434 74886
" />
<path d="M71809 74886
L71738 74849
L71710 74774
L71795 74099
" />
<path d="M72413 74849
L72334 74886
L72184 74886
L72113 74849
L72085 74774
L72123 74474
L72169 74399
L72249 74361
L72399 74361
L72469 74399
L72498 74474
L72488 74549
L72104 74624
" />
<path d="M72793 74811
L72826 74849
L72783 74886
L72751 74849
L72793 74811
L72783 74886
" />
<path d="M72844 74399
L72877 74436
L72835 74474
L72802 74436
L72844 74399
L72835 74474
" />
</g>
<g style="fill:#000000; fill-opacity:0.0; 
stroke:#000000; stroke-width:39.3701; stroke-opacity:1; 
stroke-linecap:round; stroke-linejoin:round;">
</g>
<g style="fill:#000000; fill-opacity:0.0; 
stroke:#000000; stroke-width:59.0551; stroke-opacity:1; 
stroke-linecap:round; stroke-linejoin:round;">
<path d="M70417 73070
L70220 73070
" />
<path d="M70220 73380
L70220 72789
L70501 72789
" />
<path d="M70726 73380
L70726 72986
" />
<path d="M70726 72789
L70698 72817
L70726 72845
L70754 72817
L70726 72789
L70726 72845
" />
<path d="M71091 73380
L71035 73352
L71007 73295
L71007 72789
" />
<path d="M71541 73352
L71485 73380
L71373 73380
L71316 73352
L71288 73295
L71288 73070
L71316 73014
L71373 72986
L71485 72986
L71541 73014
L71570 73070
L71570 73127
L71288 73183
" />
<path d="M71823 73323
L71851 73352
L71823 73380
L71795 73352
L71823 73323
L71823 73380
" />
<path d="M71823 73014
L71851 73042
L71823 73070
L71795 73042
L71823 73014
L71823 73070
" />
<path d="M72498 72789
L72638 73380
L72751 72958
L72863 73380
L73004 72789
" />
<path d="M73229 73380
L73229 72986
" />
<path d="M73229 72789
L73201 72817
L73229 72845
L73257 72817
L73229 72789
L73229 72845
" />
<path d="M73510 72986
L73510 73380
" />
<path d="M73510 73042
L73538 73014
L73594 72986
L73679 72986
L73735 73014
L73763 73070
L73763 73380
" />
<path d="M74297 73380
L74297 72789
" />
<path d="M74297 73352
L74241 73380
L74129 73380
L74072 73352
L74044 73323
L74016 73267
L74016 73099
L74044 73042
L74072 73014
L74129 72986
L74241 72986
L74297 73014
" />
<path d="M74663 73380
L74607 73352
L74579 73323
L74550 73267
L74550 73099
L74579 73042
L74607 73014
L74663 72986
L74747 72986
L74804 73014
L74832 73042
L74860 73099
L74860 73267
L74832 73323
L74804 73352
L74747 73380
L74663 73380
" />
<path d="M75057 72986
L75169 73380
L75282 73099
L75394 73380
L75507 72986
" />
<path d="M76181 73380
L76181 72789
L76322 72789
L76406 72817
L76463 72874
L76491 72930
L76519 73042
L76519 73127
L76491 73239
L76463 73295
L76406 73352
L76322 73380
L76181 73380
" />
<path d="M76997 73352
L76941 73380
L76828 73380
L76772 73352
L76744 73295
L76744 73070
L76772 73014
L76828 72986
L76941 72986
L76997 73014
L77025 73070
L77025 73127
L76744 73183
" />
<path d="M77194 72986
L77419 72986
" />
<path d="M77278 72789
L77278 73295
L77306 73352
L77363 73380
L77419 73380
" />
<path d="M77841 73352
L77784 73380
L77672 73380
L77616 73352
L77588 73295
L77588 73070
L77616 73014
L77672 72986
L77784 72986
L77841 73014
L77869 73070
L77869 73127
L77588 73183
" />
<path d="M78375 73352
L78319 73380
L78206 73380
L78150 73352
L78122 73323
L78094 73267
L78094 73099
L78122 73042
L78150 73014
L78206 72986
L78319 72986
L78375 73014
" />
<path d="M78544 72986
L78769 72986
" />
<path d="M78628 72789
L78628 73295
L78656 73352
L78712 73380
L78769 73380
" />
<path d="M79050 73380
L78994 73352
L78965 73323
L78937 73267
L78937 73099
L78965 73042
L78994 73014
L79050 72986
L79134 72986
L79190 73014
L79219 73042
L79247 73099
L79247 73267
L79219 73323
L79190 73352
L79134 73380
L79050 73380
" />
<path d="M79500 73380
L79500 72986
" />
<path d="M79500 73099
L79528 73042
L79556 73014
L79612 72986
L79669 72986
" />
<path d="M79865 73323
L79894 73352
L79865 73380
L79837 73352
L79865 73323
L79865 73380
" />
<path d="M80147 73380
L80147 72789
" />
<path d="M80203 73155
L80372 73380
" />
<path d="M80372 72986
L80147 73211
" />
<path d="M80625 73380
L80625 72986
" />
<path d="M80625 72789
L80597 72817
L80625 72845
L80653 72817
L80625 72789
L80625 72845
" />
<path d="M81159 73352
L81103 73380
L80990 73380
L80934 73352
L80906 73323
L80878 73267
L80878 73099
L80906 73042
L80934 73014
L80990 72986
L81103 72986
L81159 73014
" />
<path d="M81665 73380
L81665 73070
L81637 73014
L81581 72986
L81468 72986
L81412 73014
" />
<path d="M81665 73352
L81609 73380
L81468 73380
L81412 73352
L81384 73295
L81384 73239
L81412 73183
L81468 73155
L81609 73155
L81665 73127
" />
<path d="M82199 73380
L82199 72789
" />
<path d="M82199 73352
L82143 73380
L82031 73380
L81974 73352
L81946 73323
L81918 73267
L81918 73099
L81946 73042
L81974 73014
L82031 72986
L82143 72986
L82199 73014
" />
<path d="M82340 73436
L82790 73436
" />
<path d="M82931 72986
L82931 73577
" />
<path d="M82931 73014
L82987 72986
L83099 72986
L83156 73014
L83184 73042
L83212 73099
L83212 73267
L83184 73323
L83156 73352
L83099 73380
L82987 73380
L82931 73352
" />
<path d="M83718 73352
L83662 73380
L83549 73380
L83493 73352
L83465 73323
L83437 73267
L83437 73099
L83465 73042
L83493 73014
L83549 72986
L83662 72986
L83718 73014
" />
<path d="M83971 73380
L83971 72789
" />
<path d="M83971 73014
L84027 72986
L84140 72986
L84196 73014
L84224 73042
L84252 73099
L84252 73267
L84224 73323
L84196 73352
L84140 73380
L84027 73380
L83971 73352
" />
</g>
<g style="fill:#000000; fill-opacity:0.0; 
stroke:#000000; stroke-width:39.3701; stroke-opacity:1; 
stroke-linecap:round; stroke-linejoin:round;">
</g>
<g style="fill:#000000; fill-opacity:0.0; 
stroke:#000000; stroke-width:59.0551; stroke-opacity:1; 
stroke-linecap:round; stroke-linejoin:round;">
<path d="M69685 71459
L112205 71459
" />
</g>
<g style="fill:#000000; fill-opacity:0.0; 
stroke:#000000; stroke-width:39.3701; stroke-opacity:1; 
stroke-linecap:round; stroke-linejoin:round;">
</g>
<g style="fill:#000000; fill-opacity:0.0; 
stroke:#000000; stroke-width:59.0551; stroke-opacity:1; 
stroke-linecap:round; stroke-linejoin:round;">
<path d="M70192 72289
L70276 72317
L70417 72317
L70473 72289
L70501 72260
L70529 72204
L70529 72148
L70501 72092
L70473 72064
L70417 72036
L70304 72007
L70248 71979
L70220 71951
L70192 71895
L70192 71839
L70220 71782
L70248 71754
L70304 71726
L70445 71726
L70529 71754
" />
<path d="M70782 72317
L70782 71726
" />
<path d="M71035 72317
L71035 72007
L71007 71951
L70951 71923
L70867 71923
L70810 71951
L70782 71979
" />
<path d="M71541 72289
L71485 72317
L71373 72317
L71316 72289
L71288 72232
L71288 72007
L71316 71951
L71373 71923
L71485 71923
L71541 71951
L71570 72007
L71570 72064
L71288 72120
" />
<path d="M72048 72289
L71991 72317
L71879 72317
L71823 72289
L71795 72232
L71795 72007
L71823 71951
L71879 71923
L71991 71923
L72048 71951
L72076 72007
L72076 72064
L71795 72120
" />
<path d="M72244 71923
L72469 71923
" />
<path d="M72329 71726
L72329 72232
L72357 72289
L72413 72317
L72469 72317
" />
<path d="M72666 72260
L72694 72289
L72666 72317
L72638 72289
L72666 72260
L72666 72317
" />
<path d="M72666 71951
L72694 71979
L72666 72007
L72638 71979
L72666 71951
L72666 72007
" />
</g>
<g style="fill:#000000; fill-opacity:0.0; 
stroke:#000000; stroke-width:39.3701; stroke-opacity:1; 
stroke-linecap:round; stroke-linejoin:round;">
</g>
<g style="fill:#000000; fill-opacity:0.0; 
stroke:#000000; stroke-width:118.11; stroke-opacity:1; 
stroke-linecap:round; stroke-linejoin:round;">
<path d="M70220 71136
L70220 70545
L70360 70545
L70445 70573
L70501 70629
L70529 70686
L70557 70798
L70557 70883
L70529 70995
L70501 71051
L70445 71108
L70360 71136
L70220 71136
" />
<path d="M71429 70545
L71429 70967
L71401 71051
L71345 71108
L71260 71136
L71204 71136
" />
<path d="M72132 71108
L72216 71136
L72357 71136
L72413 71108
L72441 71079
L72469 71023
L72469 70967
L72441 70911
L72413 70883
L72357 70854
L72244 70826
L72188 70798
L72160 70770
L72132 70714
L72132 70658
L72160 70601
L72188 70573
L72244 70545
L72385 70545
L72469 70573
" />
<path d="M72694 70967
L72976 70967
" />
<path d="M72638 71136
L72835 70545
L73032 71136
" />
<path d="M73229 71136
L73229 70545
L73566 71136
L73566 70545
" />
<path d="M74157 70573
L74100 70545
L74016 70545
L73932 70573
L73876 70629
L73847 70686
L73819 70798
L73819 70883
L73847 70995
L73876 71051
L73932 71108
L74016 71136
L74072 71136
L74157 71108
L74185 71079
L74185 70883
L74072 70883
" />
<path d="M74438 71136
L74438 70545
" />
<path d="M74438 70826
L74775 70826
" />
<path d="M74775 71136
L74775 70545
" />
<path d="M74972 70545
L75169 71136
L75366 70545
" />
<path d="M75563 71136
L75563 70545
" />
<path d="M76631 71079
L76603 71108
L76519 71136
L76463 71136
L76378 71108
L76322 71051
L76294 70995
L76266 70883
L76266 70798
L76294 70686
L76322 70629
L76378 70573
L76463 70545
L76519 70545
L76603 70573
L76631 70601
" />
<path d="M76997 70545
L77109 70545
L77166 70573
L77222 70629
L77250 70742
L77250 70939
L77222 71051
L77166 71108
L77109 71136
L76997 71136
L76941 71108
L76885 71051
L76856 70939
L76856 70742
L76885 70629
L76941 70573
L76997 70545
" />
<path d="M77784 71136
L77503 71136
L77503 70545
" />
<path d="M78262 71136
L77981 71136
L77981 70545
" />
<path d="M78459 70826
L78656 70826
" />
<path d="M78741 71136
L78459 71136
L78459 70545
L78741 70545
" />
<path d="M79303 70573
L79247 70545
L79162 70545
L79078 70573
L79022 70629
L78994 70686
L78965 70798
L78965 70883
L78994 70995
L79022 71051
L79078 71108
L79162 71136
L79219 71136
L79303 71108
L79331 71079
L79331 70883
L79219 70883
" />
<path d="M79584 70826
L79781 70826
" />
<path d="M79865 71136
L79584 71136
L79584 70545
L79865 70545
" />
<path d="M80681 70545
L80793 70545
L80850 70573
L80906 70629
L80934 70742
L80934 70939
L80906 71051
L80850 71108
L80793 71136
L80681 71136
L80625 71108
L80568 71051
L80540 70939
L80540 70742
L80568 70629
L80625 70573
L80681 70545
" />
<path d="M81384 70826
L81187 70826
" />
<path d="M81187 71136
L81187 70545
L81468 70545
" />
<path d="M82143 70826
L82340 70826
" />
<path d="M82424 71136
L82143 71136
L82143 70545
L82424 70545
" />
<path d="M82678 71136
L82678 70545
L83015 71136
L83015 70545
" />
<path d="M83606 70573
L83549 70545
L83465 70545
L83381 70573
L83324 70629
L83296 70686
L83268 70798
L83268 70883
L83296 70995
L83324 71051
L83381 71108
L83465 71136
L83521 71136
L83606 71108
L83634 71079
L83634 70883
L83521 70883
" />
<path d="M83887 71136
L83887 70545
" />
<path d="M84168 71136
L84168 70545
L84505 71136
L84505 70545
" />
<path d="M84787 70826
L84983 70826
" />
<path d="M85068 71136
L84787 71136
L84787 70545
L85068 70545
" />
<path d="M85321 70826
L85518 70826
" />
<path d="M85602 71136
L85321 71136
L85321 70545
L85602 70545
" />
<path d="M86193 71136
L85996 70854
" />
<path d="M85855 71136
L85855 70545
L86080 70545
L86136 70573
L86165 70601
L86193 70658
L86193 70742
L86165 70798
L86136 70826
L86080 70854
L85855 70854
" />
<path d="M86446 71136
L86446 70545
" />
<path d="M86727 71136
L86727 70545
L87064 71136
L87064 70545
" />
<path d="M87655 70573
L87599 70545
L87514 70545
L87430 70573
L87374 70629
L87346 70686
L87318 70798
L87318 70883
L87346 70995
L87374 71051
L87430 71108
L87514 71136
L87571 71136
L87655 71108
L87683 71079
L87683 70883
L87571 70883
" />
</g>
<g style="fill:#000000; fill-opacity:0.0; 
stroke:#000000; stroke-width:39.3701; stroke-opacity:1; 
stroke-linecap:round; stroke-linejoin:round;">
</g>
<g style="fill:#000000; fill-opacity:0.0; 
stroke:#000000; stroke-width:59.0551; stroke-opacity:1; 
stroke-linecap:round; stroke-linejoin:round;">
<path d="M77559 75396
L77559 76577
" />
</g>
<g style="fill:#000000; fill-opacity:0.0; 
stroke:#000000; stroke-width:39.3701; stroke-opacity:1; 
stroke-linecap:round; stroke-linejoin:round;">
</g>
<g style="fill:#000000; fill-opacity:0.0; 
stroke:#000000; stroke-width:59.0551; stroke-opacity:1; 
stroke-linecap:round; stroke-linejoin:round;">
<path d="M102756 75396
L102756 77955
" />
</g>
<g style="fill:#C1C100; fill-opacity:0.0; 
stroke:#C1C100; stroke-width:59.0551; stroke-opacity:1; 
stroke-linecap:round; stroke-linejoin:round;">
<path d="M51867 51799
L52185 51799
L52223 51781
L52242 51762
L52260 51724
L52260 51649
L52242 51612
L52223 51593
L52185 51574
L51867 51574
" />
<path d="M51904 51406
L51885 51387
L51867 51350
L51867 51256
L51885 51218
L51904 51200
L51942 51181
L51979 51181
L52035 51200
L52260 51425
L52260 51181
" />
<path d="M51867 43799
L52185 43799
L52223 43781
L52242 43762
L52260 43724
L52260 43649
L52242 43612
L52223 43593
L52185 43574
L51867 43574
" />
<path d="M52260 43181
L52260 43406
" />
<path d="M52260 43293
L51867 43293
L51923 43331
L51960 43368
L51979 43406
" />
<path d="M62434 57910
L62303 57722
" />
<path d="M62209 57910
L62209 57516
L62359 57516
L62396 57535
L62415 57554
L62434 57591
L62434 57647
L62415 57685
L62396 57704
L62359 57722
L62209 57722
" />
<path d="M62565 57516
L62828 57516
L62659 57910
" />
<path d="M62434 38910
L62303 38722
" />
<path d="M62209 38910
L62209 38516
L62359 38516
L62396 38535
L62415 38554
L62434 38591
L62434 38647
L62415 38685
L62396 38704
L62359 38722
L62209 38722
" />
<path d="M62771 38516
L62696 38516
L62659 38535
L62640 38554
L62603 38610
L62584 38685
L62584 38835
L62603 38872
L62621 38891
L62659 38910
L62734 38910
L62771 38891
L62790 38872
L62809 38835
L62809 38741
L62790 38704
L62771 38685
L62734 38666
L62659 38666
L62621 38685
L62603 38704
L62584 38741
" />
<path d="M59410 62565
L59222 62696
" />
<path d="M59410 62790
L59016 62790
L59016 62640
L59035 62603
L59054 62584
L59091 62565
L59147 62565
L59185 62584
L59204 62603
L59222 62640
L59222 62790
" />
<path d="M59016 62209
L59016 62396
L59204 62415
L59185 62396
L59166 62359
L59166 62265
L59185 62228
L59204 62209
L59241 62190
L59335 62190
L59372 62209
L59391 62228
L59410 62265
L59410 62359
L59391 62396
L59372 62415
" />
<path d="M56934 38910
L56803 38722
" />
<path d="M56709 38910
L56709 38516
L56859 38516
L56896 38535
L56915 38554
L56934 38591
L56934 38647
L56915 38685
L56896 38704
L56859 38722
L56709 38722
" />
<path d="M57271 38647
L57271 38910
" />
<path d="M57178 38497
L57084 38779
L57328 38779
" />
<path d="M45410 61065
L45222 61196
" />
<path d="M45410 61290
L45016 61290
L45016 61140
L45035 61103
L45054 61084
L45091 61065
L45147 61065
L45185 61084
L45204 61103
L45222 61140
L45222 61290
" />
<path d="M45016 60934
L45016 60690
L45166 60821
L45166 60765
L45185 60728
L45204 60709
L45241 60690
L45335 60690
L45372 60709
L45391 60728
L45410 60765
L45410 60878
L45391 60915
L45372 60934
" />
<path d="M45410 50815
L45222 50946
" />
<path d="M45410 51040
L45016 51040
L45016 50890
L45035 50853
L45054 50834
L45091 50815
L45147 50815
L45185 50834
L45204 50853
L45222 50890
L45222 51040
" />
<path d="M45054 50665
L45035 50646
L45016 50609
L45016 50515
L45035 50478
L45054 50459
L45091 50440
L45129 50440
L45185 50459
L45410 50684
L45410 50440
" />
<path d="M45410 39565
L45222 39696
" />
<path d="M45410 39790
L45016 39790
L45016 39640
L45035 39603
L45054 39584
L45091 39565
L45147 39565
L45185 39584
L45204 39603
L45222 39640
L45222 39790
" />
<path d="M45410 39190
L45410 39415
" />
<path d="M45410 39303
L45016 39303
L45072 39340
L45110 39378
L45129 39415
" />
<path d="M36107 40162
L36388 40162
L36444 40181
L36482 40218
L36500 40275
L36500 40312
" />
<path d="M36107 40012
L36107 39769
L36257 39900
L36257 39844
L36275 39806
L36294 39787
L36332 39769
L36425 39769
L36463 39787
L36482 39806
L36500 39844
L36500 39956
L36482 39994
L36463 40012
" />
<path d="M36107 51162
L36388 51162
L36444 51181
L36482 51218
L36500 51275
L36500 51312
" />
<path d="M36144 50994
L36125 50975
L36107 50937
L36107 50844
L36125 50806
L36144 50787
L36182 50769
L36219 50769
L36275 50787
L36500 51012
L36500 50769
" />
<path d="M36607 61646
L36888 61646
L36944 61665
L36982 61703
L37000 61759
L37000 61796
" />
<path d="M37000 61253
L37000 61478
" />
<path d="M37000 61365
L36607 61365
L36663 61403
L36700 61440
L36719 61478
" />
<path d="M64237 46790
L63843 46790
L63843 46696
L63862 46640
L63899 46603
L63937 46584
L64012 46565
L64068 46565
L64143 46584
L64180 46603
L64218 46640
L64237 46696
L64237 46790
" />
<path d="M63880 46415
L63862 46396
L63843 46359
L63843 46265
L63862 46228
L63880 46209
L63918 46190
L63955 46190
L64012 46209
L64237 46434
L64237 46190
" />
<path d="M64237 43290
L63843 43290
L63843 43196
L63862 43140
L63899 43103
L63937 43084
L64012 43065
L64068 43065
L64143 43084
L64180 43103
L64218 43140
L64237 43196
L64237 43290
" />
<path d="M64237 42690
L64237 42915
" />
<path d="M64237 42803
L63843 42803
L63899 42840
L63937 42878
L63955 42915
" />
<path d="M64237 51790
L63843 51790
L63843 51696
L63862 51640
L63899 51603
L63937 51584
L64012 51565
L64068 51565
L64143 51584
L64180 51603
L64218 51640
L64237 51696
L64237 51790
" />
<path d="M63843 51434
L63843 51190
L63993 51321
L63993 51265
L64012 51228
L64030 51209
L64068 51190
L64162 51190
L64199 51209
L64218 51228
L64237 51265
L64237 51378
L64218 51415
L64199 51434
" />
</g>
<g style="fill:#008484; fill-opacity:0.0; 
stroke:#008484; stroke-width:59.0551; stroke-opacity:1; 
stroke-linecap:round; stroke-linejoin:round;">
</g>
<g style="fill:#008484; fill-opacity:0.0; 
stroke:#008484; stroke-width:47.2441; stroke-opacity:1; 
stroke-linecap:round; stroke-linejoin:round;">
<path d="M52476.4 51893.7 A393.701 393.701 0.0 0 0 52476.4 51106.3 " />
<path d="M52476 51893
L52476 52543
" />
<path d="M52476 52543
L56523 52543
" />
<path d="M56523 52543
L56523 50456
" />
<path d="M56523 50456
L52476 50456
" />
<path d="M52476 50456
L52476 51106
" />
<path d="M52476.4 43893.7 A393.701 393.701 0.0 0 0 52476.4 43106.3 " />
<path d="M52476 43893
L52476 44543
" />
<path d="M52476 44543
L56523 44543
" />
<path d="M56523 44543
L56523 42456
" />
<path d="M56523 42456
L52476 42456
" />
<path d="M52476 42456
L52476 43106
" />
<path d="M63232 57338
L63232 56661
" />
<path d="M63232 56661
L61767 56661
" />
<path d="M61767 56661
L61767 57338
" />
<path d="M61767 57338
L63232 57338
" />
<path d="M63653 57000
L63232 57000
" />
<path d="M61346 57000
L61767 57000
" />
<path d="M63232 38338
L63232 37661
" />
<path d="M63232 37661
L61767 37661
" />
<path d="M61767 37661
L61767 38338
" />
<path d="M61767 38338
L63232 38338
" />
<path d="M63653 38000
L63232 38000
" />
<path d="M61346 38000
L61767 38000
" />
<path d="M58838 61767
L58161 61767
" />
<path d="M58161 61767
L58161 63232
" />
<path d="M58161 63232
L58838 63232
" />
<path d="M58838 63232
L58838 61767
" />
<path d="M58500 61346
L58500 61767
" />
<path d="M58500 63653
L58500 63232
" />
<path d="M57732 38338
L57732 37661
" />
<path d="M57732 37661
L56267 37661
" />
<path d="M56267 37661
L56267 38338
" />
<path d="M56267 38338
L57732 38338
" />
<path d="M58153 38000
L57732 38000
" />
<path d="M55846 38000
L56267 38000
" />
<path d="M44838 60267
L44161 60267
" />
<path d="M44161 60267
L44161 61732
" />
<path d="M44161 61732
L44838 61732
" />
<path d="M44838 61732
L44838 60267
" />
<path d="M44500 59846
L44500 60267
" />
<path d="M44500 62153
L44500 61732
" />
<path d="M44838 50017
L44161 50017
" />
<path d="M44161 50017
L44161 51482
" />
<path d="M44161 51482
L44838 51482
" />
<path d="M44838 51482
L44838 50017
" />
<path d="M44500 49596
L44500 50017
" />
<path d="M44500 51903
L44500 51482
" />
<path d="M44838 38767
L44161 38767
" />
<path d="M44161 38767
L44161 40232
" />
<path d="M44161 40232
L44838 40232
" />
<path d="M44838 40232
L44838 38767
" />
<path d="M44500 38346
L44500 38767
" />
<path d="M44500 40653
L44500 40232
" />
</g>
<g style="fill:#008484; fill-opacity:0.0; 
stroke:#008484; stroke-width:59.0551; stroke-opacity:1; 
stroke-linecap:round; stroke-linejoin:round;">
<circle cx="34039.4" cy="38063" r="787.402" /> 
<path d="M35614 39047
L35811 39047
" />
<path d="M35614 41015
L35811 41015
" />
<circle cx="34039.4" cy="40031.5" r="787.402" /> 
<circle cx="34039.4" cy="42000" r="787.402" /> 
<path d="M35023 42984
L35023 37078
" />
<path d="M33094 42984
L33094 37078
" />
<path d="M35614 42984
L35614 37078
" />
<path d="M35811 42984
L35811 37078
" />
<path d="M35811 37078
L31952 37078
" />
<path d="M31952 37078
L31952 42984
" />
<path d="M31952 42984
L35811 42984
" />
<circle cx="34039.4" cy="49063" r="787.402" /> 
<path d="M35614 50047
L35811 50047
" />
<path d="M35614 52015
L35811 52015
" />
<circle cx="34039.4" cy="51031.5" r="787.402" /> 
<circle cx="34039.4" cy="53000" r="787.402" /> 
<path d="M35023 53984
L35023 48078
" />
<path d="M33094 53984
L33094 48078
" />
<path d="M35614 53984
L35614 48078
" />
<path d="M35811 53984
L35811 48078
" />
<path d="M35811 48078
L31952 48078
" />
<path d="M31952 48078
L31952 53984
" />
<path d="M31952 53984
L35811 53984
" />
<path d="M36114 61515
L36311 61515
" />
<circle cx="34539.4" cy="60531.5" r="787.402" /> 
<circle cx="34539.4" cy="62500" r="787.402" /> 
<path d="M35523 63484
L35523 59547
" />
<path d="M33594 63484
L33594 59547
" />
<path d="M36114 63484
L36114 59547
" />
<path d="M36311 63484
L36311 59547
" />
<path d="M36311 59547
L32452 59547
" />
<path d="M32452 59547
L32452 63484
" />
<path d="M32452 63484
L36311 63484
" />
</g>
<g style="fill:#008484; fill-opacity:0.0; 
stroke:#008484; stroke-width:47.2441; stroke-opacity:1; 
stroke-linecap:round; stroke-linejoin:round;">
<path d="M62499.8 47677.2 A1177.17 1177.17 0.0 0 0 63108.2 45492.1 " />
<path d="M61891.8 45492.1 A1177.17 1177.17 0.0 0 0 62500.2 47677.2 " />
<circle cx="62500" cy="46500" r="984.252" /> 
<path d="M63108 45492
L61891 45492
" />
<path d="M62499.8 44177.2 A1177.17 1177.17 0.0 0 0 63108.2 41992.1 " />
<path d="M61891.8 41992.1 A1177.17 1177.17 0.0 0 0 62500.2 44177.2 " />
<circle cx="62500" cy="43000" r="984.252" /> 
<path d="M63108 41992
L61891 41992
" />
<path d="M62499.8 52677.2 A1177.17 1177.17 0.0 0 0 63108.2 50492.1 " />
<path d="M61891.8 50492.1 A1177.17 1177.17 0.0 0 0 62500.2 52677.2 " />
<circle cx="62500" cy="51500" r="984.252" /> 
<path d="M63108 50492
L61891 50492
" />
</g> 
</svg>
