G04 #@! TF.FileFunction,Copper,L2,Bot,Signal*
%FSLAX46Y46*%
G04 Gerber Fmt 4.6, Leading zero omitted, Abs format (unit mm)*
G04 Created by KiCad (PCBNEW 4.0.6) date 09/27/17 00:30:41*
%MOMM*%
%LPD*%
G01*
G04 APERTURE LIST*
%ADD10C,0.100000*%
%ADD11C,0.300000*%
%ADD12C,0.250000*%
%ADD13C,2.500000*%
%ADD14R,2.500000X2.500000*%
%ADD15R,1.600000X1.600000*%
%ADD16O,1.600000X1.600000*%
%ADD17C,1.400000*%
%ADD18O,1.400000X1.400000*%
%ADD19R,1.800000X1.800000*%
%ADD20C,1.800000*%
%ADD21C,0.500000*%
%ADD22C,2.500000*%
%ADD23C,1.500000*%
%ADD24C,0.254000*%
G04 APERTURE END LIST*
D10*
D11*
X180617143Y-85538571D02*
X180331429Y-85538571D01*
X180188571Y-85610000D01*
X180045714Y-85752857D01*
X179974286Y-86038571D01*
X179974286Y-86538571D01*
X180045714Y-86824286D01*
X180188571Y-86967143D01*
X180331429Y-87038571D01*
X180617143Y-87038571D01*
X180760000Y-86967143D01*
X180902857Y-86824286D01*
X180974286Y-86538571D01*
X180974286Y-86038571D01*
X180902857Y-85752857D01*
X180760000Y-85610000D01*
X180617143Y-85538571D01*
X179331428Y-87038571D02*
X179331428Y-85538571D01*
X178760000Y-85538571D01*
X178617142Y-85610000D01*
X178545714Y-85681429D01*
X178474285Y-85824286D01*
X178474285Y-86038571D01*
X178545714Y-86181429D01*
X178617142Y-86252857D01*
X178760000Y-86324286D01*
X179331428Y-86324286D01*
X177831428Y-86467143D02*
X176688571Y-86467143D01*
X176045714Y-86610000D02*
X175331428Y-86610000D01*
X176188571Y-87038571D02*
X175688571Y-85538571D01*
X175188571Y-87038571D01*
X174688571Y-87038571D02*
X174688571Y-85538571D01*
X174188571Y-86610000D01*
X173688571Y-85538571D01*
X173688571Y-87038571D01*
X172974285Y-87038571D02*
X172974285Y-85538571D01*
X172402857Y-85538571D01*
X172259999Y-85610000D01*
X172188571Y-85681429D01*
X172117142Y-85824286D01*
X172117142Y-86038571D01*
X172188571Y-86181429D01*
X172259999Y-86252857D01*
X172402857Y-86324286D01*
X172974285Y-86324286D01*
X170402857Y-85681429D02*
X170331428Y-85610000D01*
X170188571Y-85538571D01*
X169831428Y-85538571D01*
X169688571Y-85610000D01*
X169617142Y-85681429D01*
X169545714Y-85824286D01*
X169545714Y-85967143D01*
X169617142Y-86181429D01*
X170474285Y-87038571D01*
X169545714Y-87038571D01*
X157757143Y-60138571D02*
X157471429Y-60138571D01*
X157328571Y-60210000D01*
X157185714Y-60352857D01*
X157114286Y-60638571D01*
X157114286Y-61138571D01*
X157185714Y-61424286D01*
X157328571Y-61567143D01*
X157471429Y-61638571D01*
X157757143Y-61638571D01*
X157900000Y-61567143D01*
X158042857Y-61424286D01*
X158114286Y-61138571D01*
X158114286Y-60638571D01*
X158042857Y-60352857D01*
X157900000Y-60210000D01*
X157757143Y-60138571D01*
X156471428Y-61638571D02*
X156471428Y-60138571D01*
X155900000Y-60138571D01*
X155757142Y-60210000D01*
X155685714Y-60281429D01*
X155614285Y-60424286D01*
X155614285Y-60638571D01*
X155685714Y-60781429D01*
X155757142Y-60852857D01*
X155900000Y-60924286D01*
X156471428Y-60924286D01*
X154971428Y-61067143D02*
X153828571Y-61067143D01*
X153185714Y-61210000D02*
X152471428Y-61210000D01*
X153328571Y-61638571D02*
X152828571Y-60138571D01*
X152328571Y-61638571D01*
X151828571Y-61638571D02*
X151828571Y-60138571D01*
X151328571Y-61210000D01*
X150828571Y-60138571D01*
X150828571Y-61638571D01*
X150114285Y-61638571D02*
X150114285Y-60138571D01*
X149542857Y-60138571D01*
X149399999Y-60210000D01*
X149328571Y-60281429D01*
X149257142Y-60424286D01*
X149257142Y-60638571D01*
X149328571Y-60781429D01*
X149399999Y-60852857D01*
X149542857Y-60924286D01*
X150114285Y-60924286D01*
X146685714Y-61638571D02*
X147542857Y-61638571D01*
X147114285Y-61638571D02*
X147114285Y-60138571D01*
X147257142Y-60352857D01*
X147400000Y-60495714D01*
X147542857Y-60567143D01*
D12*
X125118571Y-50907143D02*
X123975714Y-50907143D01*
X123190000Y-51478571D02*
X122904285Y-51478571D01*
X122761428Y-51407143D01*
X122690000Y-51335714D01*
X122547142Y-51121429D01*
X122475714Y-50835714D01*
X122475714Y-50264286D01*
X122547142Y-50121429D01*
X122618571Y-50050000D01*
X122761428Y-49978571D01*
X123047142Y-49978571D01*
X123190000Y-50050000D01*
X123261428Y-50121429D01*
X123332857Y-50264286D01*
X123332857Y-50621429D01*
X123261428Y-50764286D01*
X123190000Y-50835714D01*
X123047142Y-50907143D01*
X122761428Y-50907143D01*
X122618571Y-50835714D01*
X122547142Y-50764286D01*
X122475714Y-50621429D01*
X122047143Y-49978571D02*
X121547143Y-51478571D01*
X121047143Y-49978571D01*
X116228571Y-39477143D02*
X115085714Y-39477143D01*
X115657143Y-40048571D02*
X115657143Y-38905714D01*
X114300000Y-40048571D02*
X114014285Y-40048571D01*
X113871428Y-39977143D01*
X113800000Y-39905714D01*
X113657142Y-39691429D01*
X113585714Y-39405714D01*
X113585714Y-38834286D01*
X113657142Y-38691429D01*
X113728571Y-38620000D01*
X113871428Y-38548571D01*
X114157142Y-38548571D01*
X114300000Y-38620000D01*
X114371428Y-38691429D01*
X114442857Y-38834286D01*
X114442857Y-39191429D01*
X114371428Y-39334286D01*
X114300000Y-39405714D01*
X114157142Y-39477143D01*
X113871428Y-39477143D01*
X113728571Y-39405714D01*
X113657142Y-39334286D01*
X113585714Y-39191429D01*
X113157143Y-38548571D02*
X112657143Y-40048571D01*
X112157143Y-38548571D01*
X127102856Y-72497143D02*
X125959999Y-72497143D01*
X126531428Y-73068571D02*
X126531428Y-71925714D01*
X124459999Y-73068571D02*
X125317142Y-73068571D01*
X124888570Y-73068571D02*
X124888570Y-71568571D01*
X125031427Y-71782857D01*
X125174285Y-71925714D01*
X125317142Y-71997143D01*
X123102856Y-71568571D02*
X123817142Y-71568571D01*
X123888571Y-72282857D01*
X123817142Y-72211429D01*
X123674285Y-72140000D01*
X123317142Y-72140000D01*
X123174285Y-72211429D01*
X123102856Y-72282857D01*
X123031428Y-72425714D01*
X123031428Y-72782857D01*
X123102856Y-72925714D01*
X123174285Y-72997143D01*
X123317142Y-73068571D01*
X123674285Y-73068571D01*
X123817142Y-72997143D01*
X123888571Y-72925714D01*
X122602857Y-71568571D02*
X122102857Y-73068571D01*
X121602857Y-71568571D01*
X127102856Y-77577143D02*
X125959999Y-77577143D01*
X124459999Y-78148571D02*
X125317142Y-78148571D01*
X124888570Y-78148571D02*
X124888570Y-76648571D01*
X125031427Y-76862857D01*
X125174285Y-77005714D01*
X125317142Y-77077143D01*
X123102856Y-76648571D02*
X123817142Y-76648571D01*
X123888571Y-77362857D01*
X123817142Y-77291429D01*
X123674285Y-77220000D01*
X123317142Y-77220000D01*
X123174285Y-77291429D01*
X123102856Y-77362857D01*
X123031428Y-77505714D01*
X123031428Y-77862857D01*
X123102856Y-78005714D01*
X123174285Y-78077143D01*
X123317142Y-78148571D01*
X123674285Y-78148571D01*
X123817142Y-78077143D01*
X123888571Y-78005714D01*
X122602857Y-76648571D02*
X122102857Y-78148571D01*
X121602857Y-76648571D01*
X124332857Y-55130000D02*
X124475714Y-55058571D01*
X124690000Y-55058571D01*
X124904285Y-55130000D01*
X125047143Y-55272857D01*
X125118571Y-55415714D01*
X125190000Y-55701429D01*
X125190000Y-55915714D01*
X125118571Y-56201429D01*
X125047143Y-56344286D01*
X124904285Y-56487143D01*
X124690000Y-56558571D01*
X124547143Y-56558571D01*
X124332857Y-56487143D01*
X124261428Y-56415714D01*
X124261428Y-55915714D01*
X124547143Y-55915714D01*
X123618571Y-56558571D02*
X123618571Y-55058571D01*
X122761428Y-56558571D01*
X122761428Y-55058571D01*
X122047142Y-56558571D02*
X122047142Y-55058571D01*
X121689999Y-55058571D01*
X121475714Y-55130000D01*
X121332856Y-55272857D01*
X121261428Y-55415714D01*
X121189999Y-55701429D01*
X121189999Y-55915714D01*
X121261428Y-56201429D01*
X121332856Y-56344286D01*
X121475714Y-56487143D01*
X121689999Y-56558571D01*
X122047142Y-56558571D01*
X125602857Y-81800000D02*
X125745714Y-81728571D01*
X125960000Y-81728571D01*
X126174285Y-81800000D01*
X126317143Y-81942857D01*
X126388571Y-82085714D01*
X126460000Y-82371429D01*
X126460000Y-82585714D01*
X126388571Y-82871429D01*
X126317143Y-83014286D01*
X126174285Y-83157143D01*
X125960000Y-83228571D01*
X125817143Y-83228571D01*
X125602857Y-83157143D01*
X125531428Y-83085714D01*
X125531428Y-82585714D01*
X125817143Y-82585714D01*
X124888571Y-83228571D02*
X124888571Y-81728571D01*
X124031428Y-83228571D01*
X124031428Y-81728571D01*
X123317142Y-83228571D02*
X123317142Y-81728571D01*
X122959999Y-81728571D01*
X122745714Y-81800000D01*
X122602856Y-81942857D01*
X122531428Y-82085714D01*
X122459999Y-82371429D01*
X122459999Y-82585714D01*
X122531428Y-82871429D01*
X122602856Y-83014286D01*
X122745714Y-83157143D01*
X122959999Y-83228571D01*
X123317142Y-83228571D01*
X116712857Y-111010000D02*
X116855714Y-110938571D01*
X117070000Y-110938571D01*
X117284285Y-111010000D01*
X117427143Y-111152857D01*
X117498571Y-111295714D01*
X117570000Y-111581429D01*
X117570000Y-111795714D01*
X117498571Y-112081429D01*
X117427143Y-112224286D01*
X117284285Y-112367143D01*
X117070000Y-112438571D01*
X116927143Y-112438571D01*
X116712857Y-112367143D01*
X116641428Y-112295714D01*
X116641428Y-111795714D01*
X116927143Y-111795714D01*
X115998571Y-112438571D02*
X115998571Y-110938571D01*
X115141428Y-112438571D01*
X115141428Y-110938571D01*
X114427142Y-112438571D02*
X114427142Y-110938571D01*
X114069999Y-110938571D01*
X113855714Y-111010000D01*
X113712856Y-111152857D01*
X113641428Y-111295714D01*
X113569999Y-111581429D01*
X113569999Y-111795714D01*
X113641428Y-112081429D01*
X113712856Y-112224286D01*
X113855714Y-112367143D01*
X114069999Y-112438571D01*
X114427142Y-112438571D01*
X117192857Y-97198571D02*
X117192857Y-95698571D01*
X116478571Y-97198571D02*
X116478571Y-95698571D01*
X115621428Y-97198571D01*
X115621428Y-95698571D01*
X114907142Y-97198571D02*
X114907142Y-95698571D01*
X114335714Y-95698571D01*
X114192856Y-95770000D01*
X114121428Y-95841429D01*
X114049999Y-95984286D01*
X114049999Y-96198571D01*
X114121428Y-96341429D01*
X114192856Y-96412857D01*
X114335714Y-96484286D01*
X114907142Y-96484286D01*
X113407142Y-95698571D02*
X113407142Y-96912857D01*
X113335714Y-97055714D01*
X113264285Y-97127143D01*
X113121428Y-97198571D01*
X112835714Y-97198571D01*
X112692856Y-97127143D01*
X112621428Y-97055714D01*
X112549999Y-96912857D01*
X112549999Y-95698571D01*
X112049999Y-95698571D02*
X111192856Y-95698571D01*
X111621427Y-97198571D02*
X111621427Y-95698571D01*
D13*
X114300000Y-82390000D03*
D14*
X114300000Y-72390000D03*
D13*
X114300000Y-77390000D03*
D15*
X162560000Y-82550000D03*
D16*
X170180000Y-74930000D03*
X165100000Y-82550000D03*
X167640000Y-74930000D03*
X167640000Y-82550000D03*
X165100000Y-74930000D03*
X170180000Y-82550000D03*
X162560000Y-74930000D03*
D15*
X162560000Y-62230000D03*
D16*
X170180000Y-54610000D03*
X165100000Y-62230000D03*
X167640000Y-54610000D03*
X167640000Y-62230000D03*
X165100000Y-54610000D03*
X170180000Y-62230000D03*
X162560000Y-54610000D03*
D17*
X190500000Y-92710000D03*
D18*
X182880000Y-92710000D03*
D17*
X190500000Y-44450000D03*
D18*
X182880000Y-44450000D03*
D17*
X176530000Y-102870000D03*
D18*
X176530000Y-110490000D03*
D17*
X176530000Y-44450000D03*
D18*
X168910000Y-44450000D03*
D17*
X140970000Y-99060000D03*
D18*
X140970000Y-106680000D03*
D17*
X140970000Y-73025000D03*
D18*
X140970000Y-80645000D03*
D17*
X140970000Y-44450000D03*
D18*
X140970000Y-52070000D03*
D13*
X114300000Y-54450000D03*
D14*
X114300000Y-44450000D03*
D13*
X114300000Y-49450000D03*
D14*
X115570000Y-101600000D03*
D13*
X115570000Y-106600000D03*
D19*
X186690000Y-64770000D03*
D20*
X186690000Y-67310000D03*
D19*
X186690000Y-55880000D03*
D20*
X186690000Y-58420000D03*
D19*
X186690000Y-77470000D03*
D20*
X186690000Y-80010000D03*
D12*
X176530000Y-44450000D02*
X182880000Y-44450000D01*
D21*
X182880000Y-44450000D02*
X186690000Y-48260000D01*
X186690000Y-48260000D02*
X186690000Y-55880000D01*
X186690000Y-64770000D02*
X186690000Y-58420000D01*
X167640000Y-54610000D02*
X167640000Y-52070000D01*
X182880000Y-64770000D02*
X186690000Y-64770000D01*
X180340000Y-62230000D02*
X182880000Y-64770000D01*
X180340000Y-53340000D02*
X180340000Y-62230000D01*
X176530000Y-49530000D02*
X180340000Y-53340000D01*
X170180000Y-49530000D02*
X176530000Y-49530000D01*
X167640000Y-52070000D02*
X170180000Y-49530000D01*
X167640000Y-74930000D02*
X167640000Y-76200000D01*
X168910000Y-77470000D02*
X186690000Y-77470000D01*
X167640000Y-76200000D02*
X168910000Y-77470000D01*
X186690000Y-77470000D02*
X186690000Y-67310000D01*
X176530000Y-102870000D02*
X181610000Y-97790000D01*
X182880000Y-96520000D02*
X182880000Y-92710000D01*
X181610000Y-97790000D02*
X182880000Y-96520000D01*
X182880000Y-92710000D02*
X182880000Y-86360000D01*
X182880000Y-86360000D02*
X186690000Y-82550000D01*
X186690000Y-82550000D02*
X186690000Y-80010000D01*
X128270000Y-63500000D02*
X130810000Y-60960000D01*
X130810000Y-53340000D02*
X134620000Y-49530000D01*
X130810000Y-60960000D02*
X130810000Y-53340000D01*
X170180000Y-62230000D02*
X170180000Y-64770000D01*
X165100000Y-77470000D02*
X170180000Y-82550000D01*
X154940000Y-77470000D02*
X165100000Y-77470000D01*
X153670000Y-76200000D02*
X154940000Y-77470000D01*
X153670000Y-73660000D02*
X153670000Y-76200000D01*
X154940000Y-72390000D02*
X153670000Y-73660000D01*
X162560000Y-72390000D02*
X154940000Y-72390000D01*
X170180000Y-64770000D02*
X162560000Y-72390000D01*
X114300000Y-77550000D02*
X114300000Y-77470000D01*
X114300000Y-77470000D02*
X128270000Y-63500000D01*
X134620000Y-49530000D02*
X154940000Y-49530000D01*
X154940000Y-49530000D02*
X158750000Y-53340000D01*
X158750000Y-53340000D02*
X158750000Y-55880000D01*
X158750000Y-55880000D02*
X162560000Y-59690000D01*
X162560000Y-59690000D02*
X168910000Y-59690000D01*
X168910000Y-59690000D02*
X170180000Y-60960000D01*
X170180000Y-60960000D02*
X170180000Y-62230000D01*
D22*
X140970000Y-106680000D02*
X186690000Y-106680000D01*
X186690000Y-106680000D02*
X190500000Y-102870000D01*
X190500000Y-102870000D02*
X190500000Y-92710000D01*
X190500000Y-92710000D02*
X194310000Y-88900000D01*
X194310000Y-88900000D02*
X194310000Y-48260000D01*
X194310000Y-48260000D02*
X190500000Y-44450000D01*
D23*
X185420000Y-106680000D02*
X190500000Y-101600000D01*
X190500000Y-101600000D02*
X190500000Y-92710000D01*
D21*
X190500000Y-101600000D02*
X190500000Y-92710000D01*
X185420000Y-106680000D02*
X190500000Y-101600000D01*
D23*
X190500000Y-92710000D02*
X194310000Y-88900000D01*
X194310000Y-88900000D02*
X194310000Y-48260000D01*
X194310000Y-48260000D02*
X190500000Y-44450000D01*
D22*
X107950000Y-106680000D02*
X115570000Y-106680000D01*
X115570000Y-106680000D02*
X140970000Y-106680000D01*
D23*
X107950000Y-106680000D02*
X115570000Y-106680000D01*
D21*
X107950000Y-106680000D02*
X115570000Y-106680000D01*
D22*
X105410000Y-104140000D02*
X107950000Y-106680000D01*
X114300000Y-54610000D02*
X109220000Y-54610000D01*
X109220000Y-54610000D02*
X105410000Y-58420000D01*
D23*
X109220000Y-54610000D02*
X105410000Y-58420000D01*
X105410000Y-58420000D02*
X105410000Y-104140000D01*
D21*
X105410000Y-104140000D02*
X107950000Y-106680000D01*
X109220000Y-54610000D02*
X105410000Y-58420000D01*
D22*
X105410000Y-58420000D02*
X105410000Y-87630000D01*
X105410000Y-87630000D02*
X105410000Y-104140000D01*
X110490000Y-82550000D02*
X105410000Y-87630000D01*
X114300000Y-82550000D02*
X110490000Y-82550000D01*
D21*
X176530000Y-110490000D02*
X176530000Y-111760000D01*
X104060000Y-49610000D02*
X100330000Y-53340000D01*
X100330000Y-53340000D02*
X100330000Y-110490000D01*
X100330000Y-110490000D02*
X105410000Y-115570000D01*
X105410000Y-115570000D02*
X172720000Y-115570000D01*
X114300000Y-49610000D02*
X104060000Y-49610000D01*
X176530000Y-111760000D02*
X172720000Y-115570000D01*
X114300000Y-44610000D02*
X140810000Y-44610000D01*
X140810000Y-44610000D02*
X140970000Y-44450000D01*
X140970000Y-44450000D02*
X168910000Y-44450000D01*
D12*
X140810000Y-44610000D02*
X140970000Y-44450000D01*
D21*
X140970000Y-44450000D02*
X168910000Y-44450000D01*
X165100000Y-62230000D02*
X165100000Y-64770000D01*
X145415000Y-73025000D02*
X140970000Y-73025000D01*
X151130000Y-67310000D02*
X145415000Y-73025000D01*
X162560000Y-67310000D02*
X151130000Y-67310000D01*
X165100000Y-64770000D02*
X162560000Y-67310000D01*
X140970000Y-73025000D02*
X140970000Y-52070000D01*
X140970000Y-80645000D02*
X144145000Y-80645000D01*
X165100000Y-85090000D02*
X165100000Y-82550000D01*
X161290000Y-88900000D02*
X165100000Y-85090000D01*
X152400000Y-88900000D02*
X161290000Y-88900000D01*
X144145000Y-80645000D02*
X152400000Y-88900000D01*
X140970000Y-80645000D02*
X140970000Y-99060000D01*
X115570000Y-101680000D02*
X156130000Y-101680000D01*
X156130000Y-101680000D02*
X167640000Y-90170000D01*
X167640000Y-62230000D02*
X167640000Y-64770000D01*
X165100000Y-80010000D02*
X167640000Y-82550000D01*
X152400000Y-80010000D02*
X165100000Y-80010000D01*
X149860000Y-77470000D02*
X152400000Y-80010000D01*
X149860000Y-72390000D02*
X149860000Y-77470000D01*
X152400000Y-69850000D02*
X149860000Y-72390000D01*
X162560000Y-69850000D02*
X152400000Y-69850000D01*
X167640000Y-64770000D02*
X162560000Y-69850000D01*
X167640000Y-90170000D02*
X167640000Y-82550000D01*
X124460000Y-62230000D02*
X128270000Y-58420000D01*
X128270000Y-52070000D02*
X133350000Y-46990000D01*
X128270000Y-58420000D02*
X128270000Y-52070000D01*
X133350000Y-46990000D02*
X161290000Y-46990000D01*
X161290000Y-46990000D02*
X165100000Y-50800000D01*
X114300000Y-72550000D02*
X114300000Y-72390000D01*
X114300000Y-72390000D02*
X124460000Y-62230000D01*
D12*
X114300000Y-72390000D02*
X124460000Y-62230000D01*
X114300000Y-72390000D02*
X124460000Y-62230000D01*
D21*
X165100000Y-54610000D02*
X165100000Y-55880000D01*
X173990000Y-58420000D02*
X173990000Y-59690000D01*
X172720000Y-57150000D02*
X173990000Y-58420000D01*
X166370000Y-57150000D02*
X172720000Y-57150000D01*
X165100000Y-55880000D02*
X166370000Y-57150000D01*
X173990000Y-66040000D02*
X165100000Y-74930000D01*
X173990000Y-59690000D02*
X173990000Y-66040000D01*
X165100000Y-50800000D02*
X165100000Y-54610000D01*
D24*
G36*
X106606183Y-77210487D02*
X106652205Y-77231064D01*
X106702607Y-77232115D01*
X106749447Y-77213473D01*
X106785344Y-77178077D01*
X106807000Y-77107143D01*
X106807000Y-76471150D01*
X112423994Y-81151978D01*
X112415000Y-81173691D01*
X112415000Y-82264250D01*
X112573750Y-82423000D01*
X113993394Y-82423000D01*
X114111860Y-82541466D01*
X113949219Y-82677000D01*
X112573750Y-82677000D01*
X112415000Y-82835750D01*
X112415000Y-83926309D01*
X112423994Y-83948021D01*
X106807000Y-88628850D01*
X106807000Y-86904286D01*
X106796994Y-86854876D01*
X106768553Y-86813251D01*
X106726159Y-86785971D01*
X106676491Y-86777334D01*
X106616990Y-86794019D01*
X105537000Y-87411156D01*
X105537000Y-76446785D01*
X106606183Y-77210487D01*
X106606183Y-77210487D01*
G37*
X106606183Y-77210487D02*
X106652205Y-77231064D01*
X106702607Y-77232115D01*
X106749447Y-77213473D01*
X106785344Y-77178077D01*
X106807000Y-77107143D01*
X106807000Y-76471150D01*
X112423994Y-81151978D01*
X112415000Y-81173691D01*
X112415000Y-82264250D01*
X112573750Y-82423000D01*
X113993394Y-82423000D01*
X114111860Y-82541466D01*
X113949219Y-82677000D01*
X112573750Y-82677000D01*
X112415000Y-82835750D01*
X112415000Y-83926309D01*
X112423994Y-83948021D01*
X106807000Y-88628850D01*
X106807000Y-86904286D01*
X106796994Y-86854876D01*
X106768553Y-86813251D01*
X106726159Y-86785971D01*
X106676491Y-86777334D01*
X106616990Y-86794019D01*
X105537000Y-87411156D01*
X105537000Y-76446785D01*
X106606183Y-77210487D01*
M02*
